<?xml version="1.0" encoding="us-ascii" standalone="no"?><svg xmlns="http://www.w3.org/2000/svg" xmlns:xlink="http://www.w3.org/1999/xlink" contentStyleType="text/css" height="824px" preserveAspectRatio="none" style="width:1329px;height:824px;background:#FFFFFF;" version="1.1" viewBox="0 0 1329 824" width="1329px" zoomAndPan="magnify"><defs/><g><text fill="#000000" font-family="Verdana" font-size="22" font-weight="bold" lengthAdjust="spacing" textLength="695" x="312.75" y="35.4209">TOSCA Database Schema - Entity Relationship Diagram</text><!--class subjects--><g id="elem_subjects"><rect codeLine="6" fill="#FFFFFF" height="125.4844" id="subjects" rx="2.5" ry="2.5" style="stroke:#000000;stroke-width:1.0;" width="241" x="167" y="75.1094"/><ellipse cx="254.25" cy="89.1094" fill="#FFFFFF" rx="9" ry="9" style="stroke:#000000;stroke-width:1.0;"/><path d="M258.3594,95.1094 L250.6406,95.1094 L250.6406,82.7188 L258.3594,82.7188 L258.3594,84.875 L253.0938,84.875 L253.0938,87.5469 L257.8594,87.5469 L257.8594,89.7031 L253.0938,89.7031 L253.0938,92.9531 L258.3594,92.9531 L258.3594,95.1094 Z " fill="#000000"/><text fill="#000000" font-family="Verdana" font-size="14" lengthAdjust="spacing" textLength="59" x="271.75" y="93.9561">subjects</text><line style="stroke:#000000;stroke-width:1.0;" x1="168" x2="407" y1="103.1094" y2="103.1094"/><ellipse cx="178" cy="116.7578" fill="#FFFFFF" rx="3" ry="3" style="stroke:#000000;stroke-width:1.0;"/><text fill="#000000" font-family="Verdana" font-size="14" font-weight="bold" lengthAdjust="spacing" textLength="79" x="185" y="120.1045">subject_id</text><text fill="#000000" font-family="Verdana" font-size="14" lengthAdjust="spacing" textLength="110" x="268" y="120.1045">: INTEGER &#171;PK&#187;</text><line style="stroke:#000000;stroke-width:1.0;" x1="168" x2="407" y1="127.4063" y2="127.4063"/><ellipse cx="178" cy="141.0547" fill="#FFFFFF" rx="3" ry="3" style="stroke:#000000;stroke-width:1.0;"/><text fill="#000000" font-family="Verdana" font-size="14" lengthAdjust="spacing" textLength="217" x="185" y="144.4014">subject_code : TEXT &#171;UNIQUE&#187;</text><ellipse cx="178" cy="157.3516" fill="#FFFFFF" rx="3" ry="3" style="stroke:#000000;stroke-width:1.0;"/><text fill="#000000" font-family="Verdana" font-size="14" lengthAdjust="spacing" textLength="167" x="185" y="160.6982">created_at : TIMESTAMP</text><ellipse cx="178" cy="173.6484" fill="#FFFFFF" rx="3" ry="3" style="stroke:#000000;stroke-width:1.0;"/><text fill="#000000" font-family="Verdana" font-size="14" lengthAdjust="spacing" textLength="184" x="185" y="176.9951">last_modified : TIMESTAMP</text><text fill="#000000" font-family="Verdana" font-size="14" lengthAdjust="spacing" textLength="184" x="185" y="193.292">demographics_json : TEXT</text></g><!--class sessions--><g id="elem_sessions"><rect codeLine="15" fill="#FFFFFF" height="174.375" id="sessions" rx="2.5" ry="2.5" style="stroke:#000000;stroke-width:1.0;" width="220" x="317.5" y="276.6094"/><ellipse cx="392.75" cy="290.6094" fill="#FFFFFF" rx="9" ry="9" style="stroke:#000000;stroke-width:1.0;"/><path d="M396.8594,296.6094 L389.1406,296.6094 L389.1406,284.2188 L396.8594,284.2188 L396.8594,286.375 L391.5938,286.375 L391.5938,289.0469 L396.3594,289.0469 L396.3594,291.2031 L391.5938,291.2031 L391.5938,294.4531 L396.8594,294.4531 L396.8594,296.6094 Z " fill="#000000"/><text fill="#000000" font-family="Verdana" font-size="14" lengthAdjust="spacing" textLength="62" x="410.25" y="295.4561">sessions</text><line style="stroke:#000000;stroke-width:1.0;" x1="318.5" x2="536.5" y1="304.6094" y2="304.6094"/><ellipse cx="328.5" cy="318.2578" fill="#FFFFFF" rx="3" ry="3" style="stroke:#000000;stroke-width:1.0;"/><text fill="#000000" font-family="Verdana" font-size="14" font-weight="bold" lengthAdjust="spacing" textLength="82" x="335.5" y="321.6045">session_id</text><text fill="#000000" font-family="Verdana" font-size="14" lengthAdjust="spacing" textLength="110" x="421.5" y="321.6045">: INTEGER &#171;PK&#187;</text><line style="stroke:#000000;stroke-width:1.0;" x1="318.5" x2="536.5" y1="328.9063" y2="328.9063"/><ellipse cx="328.5" cy="342.5547" fill="#FFFFFF" rx="3" ry="3" style="stroke:#000000;stroke-width:1.0;"/><text fill="#000000" font-family="Verdana" font-size="14" lengthAdjust="spacing" textLength="183" x="335.5" y="345.9014">subject_id : INTEGER &#171;FK&#187;</text><ellipse cx="328.5" cy="358.8516" fill="#FFFFFF" rx="3" ry="3" style="stroke:#000000;stroke-width:1.0;"/><text fill="#000000" font-family="Verdana" font-size="14" lengthAdjust="spacing" textLength="163" x="335.5" y="362.1982">tech_id : INTEGER &#171;FK&#187;</text><ellipse cx="328.5" cy="375.1484" fill="#FFFFFF" rx="3" ry="3" style="stroke:#000000;stroke-width:1.0;"/><text fill="#000000" font-family="Verdana" font-size="14" lengthAdjust="spacing" textLength="162" x="335.5" y="378.4951">start_time : TIMESTAMP</text><ellipse cx="328.5" cy="391.4453" fill="#FFFFFF" rx="3" ry="3" style="stroke:#000000;stroke-width:1.0;"/><text fill="#000000" font-family="Verdana" font-size="14" lengthAdjust="spacing" textLength="158" x="335.5" y="394.792">end_time : TIMESTAMP</text><text fill="#000000" font-family="Verdana" font-size="14" lengthAdjust="spacing" textLength="153" x="335.5" y="411.0889">session_status : TEXT</text><text fill="#000000" font-family="Verdana" font-size="14" lengthAdjust="spacing" textLength="150" x="335.5" y="427.3857">session_notes : TEXT</text><ellipse cx="328.5" cy="440.3359" fill="#FFFFFF" rx="3" ry="3" style="stroke:#000000;stroke-width:1.0;"/><text fill="#000000" font-family="Verdana" font-size="14" lengthAdjust="spacing" textLength="187" x="335.5" y="443.6826">session_folder_path : TEXT</text></g><!--class events--><g id="elem_events"><rect codeLine="27" fill="#FFFFFF" height="190.6719" id="events" rx="2.5" ry="2.5" style="stroke:#000000;stroke-width:1.0;" width="237" x="748" y="510.6094"/><ellipse cx="801.75" cy="524.6094" fill="#FFFFFF" rx="9" ry="9" style="stroke:#000000;stroke-width:1.0;"/><path d="M805.8594,530.6094 L798.1406,530.6094 L798.1406,518.2188 L805.8594,518.2188 L805.8594,520.375 L800.5938,520.375 L800.5938,523.0469 L805.3594,523.0469 L805.3594,525.2031 L800.5938,525.2031 L800.5938,528.4531 L805.8594,528.4531 L805.8594,530.6094 Z " fill="#000000"/><text fill="#000000" font-family="Verdana" font-size="14" lengthAdjust="spacing" textLength="122" x="819.25" y="529.4561">treatment_events</text><line style="stroke:#000000;stroke-width:1.0;" x1="749" x2="984" y1="538.6094" y2="538.6094"/><ellipse cx="759" cy="552.2578" fill="#FFFFFF" rx="3" ry="3" style="stroke:#000000;stroke-width:1.0;"/><text fill="#000000" font-family="Verdana" font-size="14" font-weight="bold" lengthAdjust="spacing" textLength="66" x="766" y="555.6045">event_id</text><text fill="#000000" font-family="Verdana" font-size="14" lengthAdjust="spacing" textLength="110" x="836" y="555.6045">: INTEGER &#171;PK&#187;</text><line style="stroke:#000000;stroke-width:1.0;" x1="749" x2="984" y1="562.9063" y2="562.9063"/><ellipse cx="759" cy="576.5547" fill="#FFFFFF" rx="3" ry="3" style="stroke:#000000;stroke-width:1.0;"/><text fill="#000000" font-family="Verdana" font-size="14" lengthAdjust="spacing" textLength="186" x="766" y="579.9014">session_id : INTEGER &#171;FK&#187;</text><ellipse cx="759" cy="592.8516" fill="#FFFFFF" rx="3" ry="3" style="stroke:#000000;stroke-width:1.0;"/><text fill="#000000" font-family="Verdana" font-size="14" lengthAdjust="spacing" textLength="213" x="766" y="596.1982">event_timestamp : TIMESTAMP</text><ellipse cx="759" cy="609.1484" fill="#FFFFFF" rx="3" ry="3" style="stroke:#000000;stroke-width:1.0;"/><text fill="#000000" font-family="Verdana" font-size="14" lengthAdjust="spacing" textLength="125" x="766" y="612.4951">event_type : TEXT</text><text fill="#000000" font-family="Verdana" font-size="14" lengthAdjust="spacing" textLength="161" x="766" y="628.792">event_data_json : TEXT</text><text fill="#000000" font-family="Verdana" font-size="14" lengthAdjust="spacing" textLength="175" x="766" y="645.0889">laser_power_watts : REAL</text><text fill="#000000" font-family="Verdana" font-size="14" lengthAdjust="spacing" textLength="200" x="766" y="661.3857">actuator_position_mm : REAL</text><text fill="#000000" font-family="Verdana" font-size="14" lengthAdjust="spacing" textLength="185" x="766" y="677.6826">photodiode_voltage : REAL</text><text fill="#000000" font-family="Verdana" font-size="14" lengthAdjust="spacing" textLength="194" x="766" y="693.9795">interlock_status_json : TEXT</text></g><!--class protocols--><g id="elem_protocols"><rect codeLine="40" fill="#FFFFFF" height="174.375" id="protocols" rx="2.5" ry="2.5" style="stroke:#000000;stroke-width:1.0;" width="251" x="897" y="276.6094"/><ellipse cx="986.25" cy="290.6094" fill="#FFFFFF" rx="9" ry="9" style="stroke:#000000;stroke-width:1.0;"/><path d="M990.3594,296.6094 L982.6406,296.6094 L982.6406,284.2188 L990.3594,284.2188 L990.3594,286.375 L985.0938,286.375 L985.0938,289.0469 L989.8594,289.0469 L989.8594,291.2031 L985.0938,291.2031 L985.0938,294.4531 L990.3594,294.4531 L990.3594,296.6094 Z " fill="#000000"/><text fill="#000000" font-family="Verdana" font-size="14" lengthAdjust="spacing" textLength="65" x="1003.75" y="295.4561">protocols</text><line style="stroke:#000000;stroke-width:1.0;" x1="898" x2="1147" y1="304.6094" y2="304.6094"/><ellipse cx="908" cy="318.2578" fill="#FFFFFF" rx="3" ry="3" style="stroke:#000000;stroke-width:1.0;"/><text fill="#000000" font-family="Verdana" font-size="14" font-weight="bold" lengthAdjust="spacing" textLength="87" x="915" y="321.6045">protocol_id</text><text fill="#000000" font-family="Verdana" font-size="14" lengthAdjust="spacing" textLength="110" x="1006" y="321.6045">: INTEGER &#171;PK&#187;</text><line style="stroke:#000000;stroke-width:1.0;" x1="898" x2="1147" y1="328.9063" y2="328.9063"/><ellipse cx="908" cy="342.5547" fill="#FFFFFF" rx="3" ry="3" style="stroke:#000000;stroke-width:1.0;"/><text fill="#000000" font-family="Verdana" font-size="14" lengthAdjust="spacing" textLength="227" x="915" y="345.9014">protocol_name : TEXT &#171;UNIQUE&#187;</text><ellipse cx="908" cy="358.8516" fill="#FFFFFF" rx="3" ry="3" style="stroke:#000000;stroke-width:1.0;"/><text fill="#000000" font-family="Verdana" font-size="14" lengthAdjust="spacing" textLength="163" x="915" y="362.1982">protocol_version : TEXT</text><ellipse cx="908" cy="375.1484" fill="#FFFFFF" rx="3" ry="3" style="stroke:#000000;stroke-width:1.0;"/><text fill="#000000" font-family="Verdana" font-size="14" lengthAdjust="spacing" textLength="167" x="915" y="378.4951">created_at : TIMESTAMP</text><ellipse cx="908" cy="391.4453" fill="#FFFFFF" rx="3" ry="3" style="stroke:#000000;stroke-width:1.0;"/><text fill="#000000" font-family="Verdana" font-size="14" lengthAdjust="spacing" textLength="173" x="915" y="394.792">modified_at : TIMESTAMP</text><text fill="#000000" font-family="Verdana" font-size="14" lengthAdjust="spacing" textLength="126" x="915" y="411.0889">description : TEXT</text><ellipse cx="908" cy="424.0391" fill="#FFFFFF" rx="3" ry="3" style="stroke:#000000;stroke-width:1.0;"/><text fill="#000000" font-family="Verdana" font-size="14" lengthAdjust="spacing" textLength="212" x="915" y="427.3857">protocol_definition_json : TEXT</text><text fill="#000000" font-family="Verdana" font-size="14" lengthAdjust="spacing" textLength="138" x="915" y="443.6826">is_active : BOOLEAN</text></g><!--class safety--><g id="elem_safety"><rect codeLine="52" fill="#FFFFFF" height="190.6719" id="safety" rx="2.5" ry="2.5" style="stroke:#000000;stroke-width:1.0;" width="260" x="297.5" y="510.6094"/><ellipse cx="389.25" cy="524.6094" fill="#FFFFFF" rx="9" ry="9" style="stroke:#000000;stroke-width:1.0;"/><path d="M393.3594,530.6094 L385.6406,530.6094 L385.6406,518.2188 L393.3594,518.2188 L393.3594,520.375 L388.0938,520.375 L388.0938,523.0469 L392.8594,523.0469 L392.8594,525.2031 L388.0938,525.2031 L388.0938,528.4531 L393.3594,528.4531 L393.3594,530.6094 Z " fill="#000000"/><text fill="#000000" font-family="Verdana" font-size="14" lengthAdjust="spacing" textLength="69" x="406.75" y="529.4561">safety_log</text><line style="stroke:#000000;stroke-width:1.0;" x1="298.5" x2="556.5" y1="538.6094" y2="538.6094"/><ellipse cx="308.5" cy="552.2578" fill="#FFFFFF" rx="3" ry="3" style="stroke:#000000;stroke-width:1.0;"/><text fill="#000000" font-family="Verdana" font-size="14" font-weight="bold" lengthAdjust="spacing" textLength="122" x="315.5" y="555.6045">safety_event_id</text><text fill="#000000" font-family="Verdana" font-size="14" lengthAdjust="spacing" textLength="110" x="441.5" y="555.6045">: INTEGER &#171;PK&#187;</text><line style="stroke:#000000;stroke-width:1.0;" x1="298.5" x2="556.5" y1="562.9063" y2="562.9063"/><ellipse cx="308.5" cy="576.5547" fill="#FFFFFF" rx="3" ry="3" style="stroke:#000000;stroke-width:1.0;"/><text fill="#000000" font-family="Verdana" font-size="14" lengthAdjust="spacing" textLength="186" x="315.5" y="579.9014">session_id : INTEGER &#171;FK&#187;</text><ellipse cx="308.5" cy="592.8516" fill="#FFFFFF" rx="3" ry="3" style="stroke:#000000;stroke-width:1.0;"/><text fill="#000000" font-family="Verdana" font-size="14" lengthAdjust="spacing" textLength="213" x="315.5" y="596.1982">event_timestamp : TIMESTAMP</text><ellipse cx="308.5" cy="609.1484" fill="#FFFFFF" rx="3" ry="3" style="stroke:#000000;stroke-width:1.0;"/><text fill="#000000" font-family="Verdana" font-size="14" lengthAdjust="spacing" textLength="173" x="315.5" y="612.4951">safety_event_type : TEXT</text><ellipse cx="308.5" cy="625.4453" fill="#FFFFFF" rx="3" ry="3" style="stroke:#000000;stroke-width:1.0;"/><text fill="#000000" font-family="Verdana" font-size="14" lengthAdjust="spacing" textLength="102" x="315.5" y="628.792">severity : TEXT</text><text fill="#000000" font-family="Verdana" font-size="14" lengthAdjust="spacing" textLength="133" x="315.5" y="645.0889">fault_reason : TEXT</text><text fill="#000000" font-family="Verdana" font-size="14" lengthAdjust="spacing" textLength="194" x="315.5" y="661.3857">interlock_states_json : TEXT</text><text fill="#000000" font-family="Verdana" font-size="14" lengthAdjust="spacing" textLength="157" x="315.5" y="677.6826">recovery_action : TEXT</text><text fill="#000000" font-family="Verdana" font-size="14" lengthAdjust="spacing" textLength="233" x="315.5" y="693.9795">recovery_timestamp : TIMESTAMP</text></g><!--class calibrations--><g id="elem_calibrations"><rect codeLine="65" fill="#FFFFFF" height="141.7813" id="calibrations" rx="2.5" ry="2.5" style="stroke:#000000;stroke-width:1.0;" width="289" x="573" y="292.6094"/><ellipse cx="674.75" cy="306.6094" fill="#FFFFFF" rx="9" ry="9" style="stroke:#000000;stroke-width:1.0;"/><path d="M678.8594,312.6094 L671.1406,312.6094 L671.1406,300.2188 L678.8594,300.2188 L678.8594,302.375 L673.5938,302.375 L673.5938,305.0469 L678.3594,305.0469 L678.3594,307.2031 L673.5938,307.2031 L673.5938,310.4531 L678.8594,310.4531 L678.8594,312.6094 Z " fill="#000000"/><text fill="#000000" font-family="Verdana" font-size="14" lengthAdjust="spacing" textLength="78" x="692.25" y="311.4561">calibrations</text><line style="stroke:#000000;stroke-width:1.0;" x1="574" x2="861" y1="320.6094" y2="320.6094"/><ellipse cx="584" cy="334.2578" fill="#FFFFFF" rx="3" ry="3" style="stroke:#000000;stroke-width:1.0;"/><text fill="#000000" font-family="Verdana" font-size="14" font-weight="bold" lengthAdjust="spacing" textLength="103" x="591" y="337.6045">calibration_id</text><text fill="#000000" font-family="Verdana" font-size="14" lengthAdjust="spacing" textLength="110" x="698" y="337.6045">: INTEGER &#171;PK&#187;</text><line style="stroke:#000000;stroke-width:1.0;" x1="574" x2="861" y1="344.9063" y2="344.9063"/><ellipse cx="584" cy="358.5547" fill="#FFFFFF" rx="3" ry="3" style="stroke:#000000;stroke-width:1.0;"/><text fill="#000000" font-family="Verdana" font-size="14" lengthAdjust="spacing" textLength="131" x="591" y="361.9014">device_type : TEXT</text><ellipse cx="584" cy="374.8516" fill="#FFFFFF" rx="3" ry="3" style="stroke:#000000;stroke-width:1.0;"/><text fill="#000000" font-family="Verdana" font-size="14" lengthAdjust="spacing" textLength="244" x="591" y="378.1982">calibration_timestamp : TIMESTAMP</text><ellipse cx="584" cy="391.1484" fill="#FFFFFF" rx="3" ry="3" style="stroke:#000000;stroke-width:1.0;"/><text fill="#000000" font-family="Verdana" font-size="14" lengthAdjust="spacing" textLength="265" x="591" y="394.4951">performed_by_tech_id : INTEGER &#171;FK&#187;</text><text fill="#000000" font-family="Verdana" font-size="14" lengthAdjust="spacing" textLength="192" x="591" y="410.792">calibration_data_json : TEXT</text><text fill="#000000" font-family="Verdana" font-size="14" lengthAdjust="spacing" textLength="148" x="591" y="427.0889">is_current : BOOLEAN</text></g><!--class techs--><g id="elem_techs"><rect codeLine="75" fill="#FFFFFF" height="158.0781" id="techs" rx="2.5" ry="2.5" style="stroke:#000000;stroke-width:1.0;" width="256" x="516.5" y="58.6094"/><ellipse cx="602.25" cy="72.6094" fill="#FFFFFF" rx="9" ry="9" style="stroke:#000000;stroke-width:1.0;"/><path d="M606.3594,78.6094 L598.6406,78.6094 L598.6406,66.2188 L606.3594,66.2188 L606.3594,68.375 L601.0938,68.375 L601.0938,71.0469 L605.8594,71.0469 L605.8594,73.2031 L601.0938,73.2031 L601.0938,76.4531 L606.3594,76.4531 L606.3594,78.6094 Z " fill="#000000"/><text fill="#000000" font-family="Verdana" font-size="14" lengthAdjust="spacing" textLength="77" x="619.75" y="77.4561">tech_users</text><line style="stroke:#000000;stroke-width:1.0;" x1="517.5" x2="771.5" y1="86.6094" y2="86.6094"/><ellipse cx="527.5" cy="100.2578" fill="#FFFFFF" rx="3" ry="3" style="stroke:#000000;stroke-width:1.0;"/><text fill="#000000" font-family="Verdana" font-size="14" font-weight="bold" lengthAdjust="spacing" textLength="56" x="534.5" y="103.6045">tech_id</text><text fill="#000000" font-family="Verdana" font-size="14" lengthAdjust="spacing" textLength="110" x="594.5" y="103.6045">: INTEGER &#171;PK&#187;</text><line style="stroke:#000000;stroke-width:1.0;" x1="517.5" x2="771.5" y1="110.9063" y2="110.9063"/><ellipse cx="527.5" cy="124.5547" fill="#FFFFFF" rx="3" ry="3" style="stroke:#000000;stroke-width:1.0;"/><text fill="#000000" font-family="Verdana" font-size="14" lengthAdjust="spacing" textLength="232" x="534.5" y="127.9014">tech_username : TEXT &#171;UNIQUE&#187;</text><ellipse cx="527.5" cy="140.8516" fill="#FFFFFF" rx="3" ry="3" style="stroke:#000000;stroke-width:1.0;"/><text fill="#000000" font-family="Verdana" font-size="14" lengthAdjust="spacing" textLength="152" x="534.5" y="144.1982">tech_full_name : TEXT</text><ellipse cx="527.5" cy="157.1484" fill="#FFFFFF" rx="3" ry="3" style="stroke:#000000;stroke-width:1.0;"/><text fill="#000000" font-family="Verdana" font-size="14" lengthAdjust="spacing" textLength="167" x="534.5" y="160.4951">created_at : TIMESTAMP</text><ellipse cx="527.5" cy="173.4453" fill="#FFFFFF" rx="3" ry="3" style="stroke:#000000;stroke-width:1.0;"/><text fill="#000000" font-family="Verdana" font-size="14" lengthAdjust="spacing" textLength="158" x="534.5" y="176.792">last_login : TIMESTAMP</text><text fill="#000000" font-family="Verdana" font-size="14" lengthAdjust="spacing" textLength="138" x="534.5" y="193.0889">is_active : BOOLEAN</text><text fill="#000000" font-family="Verdana" font-size="14" lengthAdjust="spacing" textLength="75" x="534.5" y="209.3857">role : TEXT</text></g><g id="elem_GMN15"><path d="M11,336.1094 L11,391.5078 A0,0 0 0 0 11,391.5078 L282,391.5078 A0,0 0 0 0 282,391.5078 L282,346.1094 L272,336.1094 L228.5,336.1094 L224.5,200.2594 L220.5,336.1094 L11,336.1094 A0,0 0 0 0 11,336.1094 " fill="#FFFFFF" style="stroke:#000000;stroke-width:1.0;"/><path d="M272,336.1094 L272,346.1094 L282,346.1094 L272,336.1094 " fill="#FFFFFF" style="stroke:#000000;stroke-width:1.0;"/><text fill="#000000" font-family="Verdana" font-size="13" font-weight="bold" lengthAdjust="spacing" textLength="90" x="17" y="353.1763">HIPAA Note:</text><text fill="#000000" font-family="Verdana" font-size="13" lengthAdjust="spacing" textLength="139" x="111" y="353.1763">Subject identifiers are</text><text fill="#000000" font-family="Verdana" font-size="13" lengthAdjust="spacing" textLength="250" x="17" y="368.3091">anonymized codes, not patient names.</text><text fill="#000000" font-family="Verdana" font-size="13" lengthAdjust="spacing" textLength="197" x="17" y="383.4419">Demographics stored as JSON.</text></g><g id="elem_GMN18"><path d="M1020.5,548.1094 L1020.5,602.6094 L985.29,606.6094 L1020.5,610.6094 L1020.5,664.0391 A0,0 0 0 0 1020.5,664.0391 L1322.5,664.0391 A0,0 0 0 0 1322.5,664.0391 L1322.5,558.1094 L1312.5,548.1094 L1020.5,548.1094 A0,0 0 0 0 1020.5,548.1094 " fill="#FFFFFF" style="stroke:#000000;stroke-width:1.0;"/><path d="M1312.5,548.1094 L1312.5,558.1094 L1322.5,558.1094 L1312.5,548.1094 " fill="#FFFFFF" style="stroke:#000000;stroke-width:1.0;"/><text fill="#000000" font-family="Verdana" font-size="13" font-weight="bold" lengthAdjust="spacing" textLength="175" x="1026.5" y="565.1763">High-Frequency Events:</text><text fill="#000000" font-family="Verdana" font-size="13" lengthAdjust="spacing" textLength="166" x="1026.5" y="580.3091">- Protocol step executions</text><text fill="#000000" font-family="Verdana" font-size="13" lengthAdjust="spacing" textLength="105" x="1026.5" y="595.4419">- Power changes</text><text fill="#000000" font-family="Verdana" font-size="13" lengthAdjust="spacing" textLength="115" x="1026.5" y="610.5747">- Position updates</text><text fill="#000000" font-family="Verdana" font-size="13" lengthAdjust="spacing" textLength="263" x="1026.5" y="625.7075">- Photodiode readings (sampled at 10Hz)</text><text fill="#000000" font-family="Verdana" font-size="13" lengthAdjust="spacing" textLength="4" x="1026.5" y="640.8403">&#160;</text><text fill="#000000" font-family="Verdana" font-size="13" font-weight="bold" lengthAdjust="spacing" textLength="99" x="1026.5" y="655.9731">Complement:</text><text fill="#000000" font-family="Verdana" font-size="13" lengthAdjust="spacing" textLength="178" x="1129.5" y="655.9731">JSONL files for 100Hz+ data</text></g><g id="elem_GMN21"><path d="M288,761.6094 L288,817.0078 A0,0 0 0 0 288,817.0078 L567,817.0078 A0,0 0 0 0 567,817.0078 L567,771.6094 L557,761.6094 L431.5,761.6094 L427.5,701.6294 L423.5,761.6094 L288,761.6094 A0,0 0 0 0 288,761.6094 " fill="#FFFFFF" style="stroke:#000000;stroke-width:1.0;"/><path d="M557,761.6094 L557,771.6094 L567,771.6094 L557,761.6094 " fill="#FFFFFF" style="stroke:#000000;stroke-width:1.0;"/><text fill="#000000" font-family="Verdana" font-size="13" font-weight="bold" lengthAdjust="spacing" textLength="164" x="294" y="778.6763">Immutable Audit Trail:</text><text fill="#000000" font-family="Verdana" font-size="13" lengthAdjust="spacing" textLength="241" x="294" y="793.8091">All safety events logged permanently.</text><text fill="#000000" font-family="Verdana" font-size="13" lengthAdjust="spacing" textLength="258" x="294" y="808.9419">Never deleted, only marked as resolved.</text></g><g id="elem_GMN24"><path d="M893.5,110.1094 L893.5,165.5078 A0,0 0 0 0 893.5,165.5078 L1018.5,165.5078 L1022.5,276.3594 L1026.5,165.5078 L1151.5,165.5078 A0,0 0 0 0 1151.5,165.5078 L1151.5,120.1094 L1141.5,110.1094 L893.5,110.1094 A0,0 0 0 0 893.5,110.1094 " fill="#FFFFFF" style="stroke:#000000;stroke-width:1.0;"/><path d="M1141.5,110.1094 L1141.5,120.1094 L1151.5,120.1094 L1141.5,110.1094 " fill="#FFFFFF" style="stroke:#000000;stroke-width:1.0;"/><text fill="#000000" font-family="Verdana" font-size="13" font-weight="bold" lengthAdjust="spacing" textLength="83" x="899.5" y="127.1763">Versioning:</text><text fill="#000000" font-family="Verdana" font-size="13" lengthAdjust="spacing" textLength="146" x="986.5" y="127.1763">Protocol definitions are</text><text fill="#000000" font-family="Verdana" font-size="13" lengthAdjust="spacing" textLength="237" x="899.5" y="142.3091">versioned. Old versions preserved for</text><text fill="#000000" font-family="Verdana" font-size="13" lengthAdjust="spacing" textLength="116" x="899.5" y="157.4419">session audit trail.</text></g><!--link subjects to sessions--><g id="link_subjects_sessions"><path codeLine="86" d="M362.75,208.2594 C362.75,208.2594 362.75,268.2994 362.75,268.2994 " fill="none" id="subjects-sessions" style="stroke:#000000;stroke-width:1.0;"/><line style="stroke:#000000;stroke-width:1.0;" x1="358.75" x2="366.75" y1="204.2594" y2="204.2594"/><line style="stroke:#000000;stroke-width:1.0;" x1="358.75" x2="366.75" y1="207.2594" y2="207.2594"/><line style="stroke:#000000;stroke-width:1.0;" x1="362.75" x2="362.75" y1="208.2594" y2="200.2594"/><line style="stroke:#000000;stroke-width:1.0;" x1="362.75" x2="368.75" y1="268.2994" y2="276.2994"/><line style="stroke:#000000;stroke-width:1.0;" x1="362.75" x2="356.75" y1="268.2994" y2="276.2994"/><line style="stroke:#000000;stroke-width:1.0;" x1="362.75" x2="362.75" y1="268.2994" y2="276.2994"/><ellipse cx="362.75" cy="262.2994" fill="none" rx="4" ry="4" style="stroke:#000000;stroke-width:1.0;"/><text fill="#000000" font-family="Verdana" font-size="13" lengthAdjust="spacing" textLength="63" x="298.75" y="234.3463">has many</text></g><!--link sessions to events--><g id="link_sessions_events"><path codeLine="87" d="M545.7,442.6094 C545.7,442.6094 805,442.6094 805,442.6094 C805,442.6094 805,502.5294 805,502.5294 " fill="none" id="sessions-events" style="stroke:#000000;stroke-width:1.0;"/><line style="stroke:#000000;stroke-width:1.0;" x1="541.7" x2="541.7" y1="446.6094" y2="438.6094"/><line style="stroke:#000000;stroke-width:1.0;" x1="544.7" x2="544.7" y1="446.6094" y2="438.6094"/><line style="stroke:#000000;stroke-width:1.0;" x1="545.7" x2="537.7" y1="442.6094" y2="442.6094"/><line style="stroke:#000000;stroke-width:1.0;" x1="805" x2="811" y1="502.5294" y2="510.5294"/><line style="stroke:#000000;stroke-width:1.0;" x1="805" x2="799" y1="502.5294" y2="510.5294"/><line style="stroke:#000000;stroke-width:1.0;" x1="805" x2="805" y1="502.5294" y2="510.5294"/><ellipse cx="805" cy="496.5294" fill="none" rx="4" ry="4" style="stroke:#000000;stroke-width:1.0;"/><text fill="#000000" font-family="Verdana" font-size="13" lengthAdjust="spacing" textLength="54" x="650.31" y="455.6763">contains</text></g><!--link sessions to safety--><g id="link_sessions_safety"><path codeLine="88" d="M427.5,458.8194 C427.5,458.8194 427.5,502.2294 427.5,502.2294 " fill="none" id="sessions-safety" style="stroke:#000000;stroke-width:1.0;"/><line style="stroke:#000000;stroke-width:1.0;" x1="423.5" x2="431.5" y1="454.8194" y2="454.8194"/><line style="stroke:#000000;stroke-width:1.0;" x1="423.5" x2="431.5" y1="457.8194" y2="457.8194"/><line style="stroke:#000000;stroke-width:1.0;" x1="427.5" x2="427.5" y1="458.8194" y2="450.8194"/><line style="stroke:#000000;stroke-width:1.0;" x1="427.5" x2="433.5" y1="502.2294" y2="510.2294"/><line style="stroke:#000000;stroke-width:1.0;" x1="427.5" x2="421.5" y1="502.2294" y2="510.2294"/><line style="stroke:#000000;stroke-width:1.0;" x1="427.5" x2="427.5" y1="502.2294" y2="510.2294"/><ellipse cx="427.5" cy="496.2294" fill="none" rx="4" ry="4" style="stroke:#000000;stroke-width:1.0;"/><text fill="#000000" font-family="Verdana" font-size="13" lengthAdjust="spacing" textLength="26" x="400.5" y="476.5863">logs</text></g><!--link techs to sessions--><g id="link_techs_sessions"><path codeLine="89" d="M527,224.6494 C527,224.6494 527,268.5194 527,268.5194 " fill="none" id="techs-sessions" style="stroke:#000000;stroke-width:1.0;"/><line style="stroke:#000000;stroke-width:1.0;" x1="523" x2="531" y1="220.6494" y2="220.6494"/><line style="stroke:#000000;stroke-width:1.0;" x1="523" x2="531" y1="223.6494" y2="223.6494"/><line style="stroke:#000000;stroke-width:1.0;" x1="527" x2="527" y1="224.6494" y2="216.6494"/><line style="stroke:#000000;stroke-width:1.0;" x1="527" x2="533" y1="268.5194" y2="276.5194"/><line style="stroke:#000000;stroke-width:1.0;" x1="527" x2="521" y1="268.5194" y2="276.5194"/><line style="stroke:#000000;stroke-width:1.0;" x1="527" x2="527" y1="268.5194" y2="276.5194"/><ellipse cx="527" cy="262.5194" fill="none" rx="4" ry="4" style="stroke:#000000;stroke-width:1.0;"/><text fill="#000000" font-family="Verdana" font-size="13" lengthAdjust="spacing" textLength="58" x="468" y="242.6463">performs</text></g><!--link techs to calibrations--><g id="link_techs_calibrations"><path codeLine="90" d="M672.75,224.6494 C672.75,224.6494 672.75,284.5394 672.75,284.5394 " fill="none" id="techs-calibrations" style="stroke:#000000;stroke-width:1.0;"/><line style="stroke:#000000;stroke-width:1.0;" x1="668.75" x2="676.75" y1="220.6494" y2="220.6494"/><line style="stroke:#000000;stroke-width:1.0;" x1="668.75" x2="676.75" y1="223.6494" y2="223.6494"/><line style="stroke:#000000;stroke-width:1.0;" x1="672.75" x2="672.75" y1="224.6494" y2="216.6494"/><line style="stroke:#000000;stroke-width:1.0;" x1="672.75" x2="678.75" y1="284.5394" y2="292.5394"/><line style="stroke:#000000;stroke-width:1.0;" x1="672.75" x2="666.75" y1="284.5394" y2="292.5394"/><line style="stroke:#000000;stroke-width:1.0;" x1="672.75" x2="672.75" y1="284.5394" y2="292.5394"/><ellipse cx="672.75" cy="278.5394" fill="none" rx="4" ry="4" style="stroke:#000000;stroke-width:1.0;"/><text fill="#000000" font-family="Verdana" font-size="13" lengthAdjust="spacing" textLength="58" x="613.75" y="250.6663">performs</text></g><!--link protocols to events--><g id="link_protocols_events"><path codeLine="91" d="M941,458.8194 C941,458.8194 941,502.2294 941,502.2294 " fill="none" id="protocols-events" style="stroke:#000000;stroke-width:1.0;"/><line style="stroke:#000000;stroke-width:1.0;" x1="937" x2="945" y1="454.8194" y2="454.8194"/><line style="stroke:#000000;stroke-width:1.0;" x1="937" x2="945" y1="457.8194" y2="457.8194"/><line style="stroke:#000000;stroke-width:1.0;" x1="941" x2="941" y1="458.8194" y2="450.8194"/><line style="stroke:#000000;stroke-width:1.0;" x1="941" x2="947" y1="502.2294" y2="510.2294"/><line style="stroke:#000000;stroke-width:1.0;" x1="941" x2="935" y1="502.2294" y2="510.2294"/><line style="stroke:#000000;stroke-width:1.0;" x1="941" x2="941" y1="502.2294" y2="510.2294"/><ellipse cx="941" cy="496.2294" fill="none" rx="4" ry="4" style="stroke:#000000;stroke-width:1.0;"/><text fill="#000000" font-family="Verdana" font-size="13" lengthAdjust="spacing" textLength="74" x="866" y="476.5863">executed in</text></g><!--SRC=[lLPDazis3BthLw0-jMwSQQyxcSmuMQTni_5krqwcDmqjmZQp5AcIb1CdwNyl8EhJ7xivzU8n0GZ2UtWWz5FOOOvGQA5CuX-KAOGJEMXbC1mA1El2pYP9K44Zh6wNhwTmBO9O2u-mpEXP0HEO6V8Vu1wr2CeQlrC5N2knfKn9Wj4vykNw4sR1Zq1uQ0xmBG4OmtXS6r8bnsEuWlbYDVjZTWylNjozU_cIOYQJAh09own42blD_bvHp8V5_AyFiofk39b34L2c8d30_FrikPg-lwjSMlYGvbQgZK9vv9MOMogusAdCfv-yDNNwvDyU1FIUyKK8zQ6340q_2a79GT2RTtNz0RFTHQSFmeKqg1nFmA6HvnnDLVHaA7q3ghCR6x1d7hUEZTKINLg8i3j3HM2MSpgbkAVVI4dysn9I7P-aesNjFEAOX84HWhmuXHtzhDKMHBH9qkcWay02O4ZsC_r-5Y4myFlPz8PS8Wkb29QzNh6AqppllCNE1j8DgIxTMnt45ZkVCW6Tjjb3pV4bzHIEScHMHwxQKqjNOtcAiJREYFpI4BGnUtHCRx_1Zmn8CnkdFea-Swe8HxdQzqZSA1Dv6rAkV4hKgZrN-khszcOsNGn6IcpeeacrtSQXgexTI4Nl_oAamRk6UkBaH2GNtDesejGX9Ig7Q0TQG7z4XiFCKg93HSbPn_dwUeHbGgkrY_TiHLdVq1BNCpx5cyIzol04SJ_3PT8AT1lhSbBCccg_V7FrivsPIn99LZf76C-hfCfSqkn6o7piiDQlVHHac-2HcQbYDgKU3DOFhHHIhp97hdEwfpvRZRsheLs3txzF9lPRjrEkOBGZeBamXr7IMkke-fgbcCoQG8lRdyRKWqGnL1pv8sLdNbDty3XaeAf1M7TndPI3Np0hYIWQWr6Iy6Q1jGt1vc0txSfdsiPlvtVJAImeuehwjemkK98RJXUGyo0Sygrih3dawYlbv9Nldm5b1Tf9YhN2VVBFAUowjxnfHrf7yKJVdylRnNCIaUIdiAx8gUqkS46nxbWEsIPl7FvJeiaECAiyL1aB2Evgm9GO2uWOcPRev5q2sKwOBJQMk3-WB2HV0T7OxWyQTI6LsNhusTD4QQuqmE-_lVtwIrBLyjgobLShKyCGRc2ZD2rfQW05KkIlm3Dq3An7TTNyAjiypqlwN2FLJKkf0goSK3eYcshToAHk8KbbI_LGhqbuPD479dV1TnzT4ngfjS_06dqWORg7oB53R_KUvGdFmHPSIokNgfoFSHqHVWRNCjjjZwRnzTwYl72hPNFajOaqnVG-PgFxZ05HeGkChbV9Vm00]--></g></svg>