<?xml version="1.0" encoding="us-ascii" standalone="no"?><svg xmlns="http://www.w3.org/2000/svg" xmlns:xlink="http://www.w3.org/1999/xlink" contentStyleType="text/css" height="833px" preserveAspectRatio="none" style="width:2318px;height:833px;background:#FFFFFF;" version="1.1" viewBox="0 0 2318 833" width="2318px" zoomAndPan="magnify"><defs/><g><text fill="#000000" font-family="Verdana" font-size="22" font-weight="bold" lengthAdjust="spacing" textLength="509" x="900" y="35.4209">Data Flow - TOSCA Laser Control System</text><!--cluster User Interface Layer--><g id="cluster_User Interface Layer"><path d="M100.5,57.6094 L263.5,57.6094 A3.75,3.75 0 0 1 266,60.1094 L273,79.9063 L968.5,79.9063 A2.5,2.5 0 0 1 971,82.4063 L971,152.1094 A2.5,2.5 0 0 1 968.5,154.6094 L100.5,154.6094 A2.5,2.5 0 0 1 98,152.1094 L98,60.1094 A2.5,2.5 0 0 1 100.5,57.6094 " fill="#FFFFFF" style="stroke:#000000;stroke-width:1.0;"/><line style="stroke:#000000;stroke-width:1.0;" x1="98" x2="273" y1="79.9063" y2="79.9063"/><text fill="#000000" font-family="Verdana" font-size="14" font-weight="bold" lengthAdjust="spacing" textLength="162" x="102" y="72.6045">User Interface Layer</text></g><!--cluster Application Core--><g id="cluster_Application Core"><path d="M13.5,203.6094 L144.5,203.6094 A3.75,3.75 0 0 1 147,206.1094 L154,225.9063 L730.5,225.9063 A2.5,2.5 0 0 1 733,228.4063 L733,442.1094 A2.5,2.5 0 0 1 730.5,444.6094 L13.5,444.6094 A2.5,2.5 0 0 1 11,442.1094 L11,206.1094 A2.5,2.5 0 0 1 13.5,203.6094 " fill="#FFFFFF" style="stroke:#000000;stroke-width:1.0;"/><line style="stroke:#000000;stroke-width:1.0;" x1="11" x2="154" y1="225.9063" y2="225.9063"/><text fill="#000000" font-family="Verdana" font-size="14" font-weight="bold" lengthAdjust="spacing" textLength="130" x="15" y="218.6045">Application Core</text></g><!--cluster Hardware Abstraction Layer--><g id="cluster_Hardware Abstraction Layer"><path d="M1528.5,347.6094 L1751.5,347.6094 A3.75,3.75 0 0 1 1754,350.1094 L1761,369.9063 L2083.5,369.9063 A2.5,2.5 0 0 1 2086,372.4063 L2086,442.1094 A2.5,2.5 0 0 1 2083.5,444.6094 L1528.5,444.6094 A2.5,2.5 0 0 1 1526,442.1094 L1526,350.1094 A2.5,2.5 0 0 1 1528.5,347.6094 " fill="#FFFFFF" style="stroke:#000000;stroke-width:1.0;"/><line style="stroke:#000000;stroke-width:1.0;" x1="1526" x2="1761" y1="369.9063" y2="369.9063"/><text fill="#000000" font-family="Verdana" font-size="14" font-weight="bold" lengthAdjust="spacing" textLength="222" x="1530" y="362.6045">Hardware Abstraction Layer</text></g><!--cluster Data Persistence--><g id="cluster_Data Persistence"><path d="M367.5,504.1094 L502.5,504.1094 A3.75,3.75 0 0 1 505,506.6094 L512,526.4063 L1363.5,526.4063 A2.5,2.5 0 0 1 1366,528.9063 L1366,824.1094 A2.5,2.5 0 0 1 1363.5,826.6094 L367.5,826.6094 A2.5,2.5 0 0 1 365,824.1094 L365,506.6094 A2.5,2.5 0 0 1 367.5,504.1094 " fill="#FFFFFF" style="stroke:#000000;stroke-width:1.0;"/><line style="stroke:#000000;stroke-width:1.0;" x1="365" x2="512" y1="526.4063" y2="526.4063"/><text fill="#000000" font-family="Verdana" font-size="14" font-weight="bold" lengthAdjust="spacing" textLength="134" x="369" y="519.1045">Data Persistence</text></g><!--cluster DB--><g id="cluster_DB"><path d="M719,565.1094 C719,555.1094 969.5,555.1094 969.5,555.1094 C969.5,555.1094 1220,555.1094 1220,565.1094 L1220,784.6094 C1220,794.6094 969.5,794.6094 969.5,794.6094 C969.5,794.6094 719,794.6094 719,784.6094 L719,565.1094 " fill="#FFFFFF" style="stroke:#000000;stroke-width:1.0;"/><path d="M719,565.1094 C719,575.1094 969.5,575.1094 969.5,575.1094 C969.5,575.1094 1220,575.1094 1220,565.1094 " fill="none" style="stroke:#000000;stroke-width:1.0;"/><text fill="#000000" font-family="Verdana" font-size="14" font-weight="bold" lengthAdjust="spacing" textLength="77" x="931" y="590.1045">SQLite DB</text></g><!--cluster SessionData--><g id="cluster_SessionData"><path d="M399.5,575.1094 L526.5,575.1094 A3.75,3.75 0 0 1 529,577.6094 L536,597.4063 L676.5,597.4063 A2.5,2.5 0 0 1 679,599.9063 L679,787.1094 A2.5,2.5 0 0 1 676.5,789.6094 L399.5,789.6094 A2.5,2.5 0 0 1 397,787.1094 L397,577.6094 A2.5,2.5 0 0 1 399.5,575.1094 " fill="#FFFFFF" style="stroke:#000000;stroke-width:1.0;"/><line style="stroke:#000000;stroke-width:1.0;" x1="397" x2="536" y1="597.4063" y2="597.4063"/><text fill="#000000" font-family="Verdana" font-size="14" font-weight="bold" lengthAdjust="spacing" textLength="126" x="401" y="590.1045">Session Folders</text></g><!--cluster Physical Hardware--><g id="cluster_Physical Hardware"><path d="M1475.5,578.1094 L1622.5,578.1094 A3.75,3.75 0 0 1 1625,580.6094 L1632,600.4063 L2007.5,600.4063 A2.5,2.5 0 0 1 2010,602.9063 L2010,672.6094 A2.5,2.5 0 0 1 2007.5,675.1094 L1475.5,675.1094 A2.5,2.5 0 0 1 1473,672.6094 L1473,580.6094 A2.5,2.5 0 0 1 1475.5,578.1094 " fill="#FFFFFF" style="stroke:#000000;stroke-width:1.0;"/><line style="stroke:#000000;stroke-width:1.0;" x1="1473" x2="1632" y1="600.4063" y2="600.4063"/><text fill="#000000" font-family="Verdana" font-size="14" font-weight="bold" lengthAdjust="spacing" textLength="146" x="1477" y="593.1045">Physical Hardware</text></g><!--entity SubjectUI--><g id="elem_SubjectUI"><rect fill="#FFFFFF" height="46.2969" rx="2.5" ry="2.5" style="stroke:#000000;stroke-width:1.0;" width="144" x="114" y="92.6094"/><rect fill="#FFFFFF" height="10" style="stroke:#000000;stroke-width:1.0;" width="15" x="238" y="97.6094"/><rect fill="#FFFFFF" height="2" style="stroke:#000000;stroke-width:1.0;" width="4" x="236" y="99.6094"/><rect fill="#FFFFFF" height="2" style="stroke:#000000;stroke-width:1.0;" width="4" x="236" y="103.6094"/><text fill="#000000" font-family="Verdana" font-size="14" lengthAdjust="spacing" textLength="104" x="129" y="125.6045">Subject Widget</text></g><!--entity CameraUI--><g id="elem_CameraUI"><rect fill="#FFFFFF" height="46.2969" rx="2.5" ry="2.5" style="stroke:#000000;stroke-width:1.0;" width="145" x="626.5" y="92.6094"/><rect fill="#FFFFFF" height="10" style="stroke:#000000;stroke-width:1.0;" width="15" x="751.5" y="97.6094"/><rect fill="#FFFFFF" height="2" style="stroke:#000000;stroke-width:1.0;" width="4" x="749.5" y="99.6094"/><rect fill="#FFFFFF" height="2" style="stroke:#000000;stroke-width:1.0;" width="4" x="749.5" y="103.6094"/><text fill="#000000" font-family="Verdana" font-size="14" lengthAdjust="spacing" textLength="105" x="641.5" y="125.6045">Camera Widget</text></g><!--entity LaserUI--><g id="elem_LaserUI"><rect fill="#FFFFFF" height="46.2969" rx="2.5" ry="2.5" style="stroke:#000000;stroke-width:1.0;" width="129" x="462.5" y="92.6094"/><rect fill="#FFFFFF" height="10" style="stroke:#000000;stroke-width:1.0;" width="15" x="571.5" y="97.6094"/><rect fill="#FFFFFF" height="2" style="stroke:#000000;stroke-width:1.0;" width="4" x="569.5" y="99.6094"/><rect fill="#FFFFFF" height="2" style="stroke:#000000;stroke-width:1.0;" width="4" x="569.5" y="103.6094"/><text fill="#000000" font-family="Verdana" font-size="14" lengthAdjust="spacing" textLength="89" x="477.5" y="125.6045">Laser Widget</text></g><!--entity SafetyUI--><g id="elem_SafetyUI"><rect fill="#FFFFFF" height="46.2969" rx="2.5" ry="2.5" style="stroke:#000000;stroke-width:1.0;" width="134" x="293" y="92.6094"/><rect fill="#FFFFFF" height="10" style="stroke:#000000;stroke-width:1.0;" width="15" x="407" y="97.6094"/><rect fill="#FFFFFF" height="2" style="stroke:#000000;stroke-width:1.0;" width="4" x="405" y="99.6094"/><rect fill="#FFFFFF" height="2" style="stroke:#000000;stroke-width:1.0;" width="4" x="405" y="103.6094"/><text fill="#000000" font-family="Verdana" font-size="14" lengthAdjust="spacing" textLength="94" x="308" y="125.6045">Safety Widget</text></g><!--entity ProtocolUI--><g id="elem_ProtocolUI"><rect fill="#FFFFFF" height="46.2969" rx="2.5" ry="2.5" style="stroke:#000000;stroke-width:1.0;" width="149" x="806.5" y="92.6094"/><rect fill="#FFFFFF" height="10" style="stroke:#000000;stroke-width:1.0;" width="15" x="935.5" y="97.6094"/><rect fill="#FFFFFF" height="2" style="stroke:#000000;stroke-width:1.0;" width="4" x="933.5" y="99.6094"/><rect fill="#FFFFFF" height="2" style="stroke:#000000;stroke-width:1.0;" width="4" x="933.5" y="103.6094"/><text fill="#000000" font-family="Verdana" font-size="14" lengthAdjust="spacing" textLength="109" x="821.5" y="125.6045">Protocol Builder</text></g><!--entity SessionMgr--><g id="elem_SessionMgr"><rect fill="#FFFFFF" height="46.2969" rx="2.5" ry="2.5" style="stroke:#000000;stroke-width:1.0;" width="159" x="26.5" y="238.6094"/><rect fill="#FFFFFF" height="10" style="stroke:#000000;stroke-width:1.0;" width="15" x="165.5" y="243.6094"/><rect fill="#FFFFFF" height="2" style="stroke:#000000;stroke-width:1.0;" width="4" x="163.5" y="245.6094"/><rect fill="#FFFFFF" height="2" style="stroke:#000000;stroke-width:1.0;" width="4" x="163.5" y="249.6094"/><text fill="#000000" font-family="Verdana" font-size="14" lengthAdjust="spacing" textLength="119" x="41.5" y="271.6045">Session Manager</text></g><!--entity SafetyMgr--><g id="elem_SafetyMgr"><rect fill="#FFFFFF" height="46.2969" rx="2.5" ry="2.5" style="stroke:#000000;stroke-width:1.0;" width="146" x="387" y="238.6094"/><rect fill="#FFFFFF" height="10" style="stroke:#000000;stroke-width:1.0;" width="15" x="513" y="243.6094"/><rect fill="#FFFFFF" height="2" style="stroke:#000000;stroke-width:1.0;" width="4" x="511" y="245.6094"/><rect fill="#FFFFFF" height="2" style="stroke:#000000;stroke-width:1.0;" width="4" x="511" y="249.6094"/><text fill="#000000" font-family="Verdana" font-size="14" lengthAdjust="spacing" textLength="106" x="402" y="271.6045">Safety Manager</text></g><!--entity ProtocolEng--><g id="elem_ProtocolEng"><rect fill="#FFFFFF" height="46.2969" rx="2.5" ry="2.5" style="stroke:#000000;stroke-width:1.0;" width="149" x="568.5" y="238.6094"/><rect fill="#FFFFFF" height="10" style="stroke:#000000;stroke-width:1.0;" width="15" x="697.5" y="243.6094"/><rect fill="#FFFFFF" height="2" style="stroke:#000000;stroke-width:1.0;" width="4" x="695.5" y="245.6094"/><rect fill="#FFFFFF" height="2" style="stroke:#000000;stroke-width:1.0;" width="4" x="695.5" y="249.6094"/><text fill="#000000" font-family="Verdana" font-size="14" lengthAdjust="spacing" textLength="109" x="583.5" y="271.6045">Protocol Engine</text></g><!--entity EventLog--><g id="elem_EventLog"><rect fill="#FFFFFF" height="46.2969" rx="2.5" ry="2.5" style="stroke:#000000;stroke-width:1.0;" width="131" x="220.5" y="238.6094"/><rect fill="#FFFFFF" height="10" style="stroke:#000000;stroke-width:1.0;" width="15" x="331.5" y="243.6094"/><rect fill="#FFFFFF" height="2" style="stroke:#000000;stroke-width:1.0;" width="4" x="329.5" y="245.6094"/><rect fill="#FFFFFF" height="2" style="stroke:#000000;stroke-width:1.0;" width="4" x="329.5" y="249.6094"/><text fill="#000000" font-family="Verdana" font-size="14" lengthAdjust="spacing" textLength="91" x="235.5" y="271.6045">Event Logger</text></g><!--entity RecordMgr--><g id="elem_RecordMgr"><rect fill="#FFFFFF" height="46.2969" rx="2.5" ry="2.5" style="stroke:#000000;stroke-width:1.0;" width="175" x="256.5" y="382.6094"/><rect fill="#FFFFFF" height="10" style="stroke:#000000;stroke-width:1.0;" width="15" x="411.5" y="387.6094"/><rect fill="#FFFFFF" height="2" style="stroke:#000000;stroke-width:1.0;" width="4" x="409.5" y="389.6094"/><rect fill="#FFFFFF" height="2" style="stroke:#000000;stroke-width:1.0;" width="4" x="409.5" y="393.6094"/><text fill="#000000" font-family="Verdana" font-size="14" lengthAdjust="spacing" textLength="135" x="271.5" y="415.6045">Recording Manager</text></g><!--entity CameraCtrl--><g id="elem_CameraCtrl"><rect fill="#FFFFFF" height="46.2969" rx="2.5" ry="2.5" style="stroke:#000000;stroke-width:1.0;" width="164" x="1906" y="382.6094"/><rect fill="#FFFFFF" height="10" style="stroke:#000000;stroke-width:1.0;" width="15" x="2050" y="387.6094"/><rect fill="#FFFFFF" height="2" style="stroke:#000000;stroke-width:1.0;" width="4" x="2048" y="389.6094"/><rect fill="#FFFFFF" height="2" style="stroke:#000000;stroke-width:1.0;" width="4" x="2048" y="393.6094"/><text fill="#000000" font-family="Verdana" font-size="14" lengthAdjust="spacing" textLength="124" x="1921" y="415.6045">Camera Controller</text></g><!--entity LaserCtrl--><g id="elem_LaserCtrl"><rect fill="#FFFFFF" height="46.2969" rx="2.5" ry="2.5" style="stroke:#000000;stroke-width:1.0;" width="148" x="1723" y="382.6094"/><rect fill="#FFFFFF" height="10" style="stroke:#000000;stroke-width:1.0;" width="15" x="1851" y="387.6094"/><rect fill="#FFFFFF" height="2" style="stroke:#000000;stroke-width:1.0;" width="4" x="1849" y="389.6094"/><rect fill="#FFFFFF" height="2" style="stroke:#000000;stroke-width:1.0;" width="4" x="1849" y="393.6094"/><text fill="#000000" font-family="Verdana" font-size="14" lengthAdjust="spacing" textLength="108" x="1738" y="415.6045">Laser Controller</text></g><!--entity GPIOCtrl--><g id="elem_GPIOCtrl"><rect fill="#FFFFFF" height="46.2969" rx="2.5" ry="2.5" style="stroke:#000000;stroke-width:1.0;" width="145" x="1542.5" y="382.6094"/><rect fill="#FFFFFF" height="10" style="stroke:#000000;stroke-width:1.0;" width="15" x="1667.5" y="387.6094"/><rect fill="#FFFFFF" height="2" style="stroke:#000000;stroke-width:1.0;" width="4" x="1665.5" y="389.6094"/><rect fill="#FFFFFF" height="2" style="stroke:#000000;stroke-width:1.0;" width="4" x="1665.5" y="393.6094"/><text fill="#000000" font-family="Verdana" font-size="14" lengthAdjust="spacing" textLength="105" x="1557.5" y="415.6045">GPIO Controller</text></g><!--entity JSONL--><g id="elem_JSONL"><path d="M1246,609.1094 L1287,609.1094 A3.75,3.75 0 0 1 1289.5,611.6094 L1296.5,630.1094 L1348,630.1094 A2.5,2.5 0 0 1 1350.5,632.6094 L1350.5,660.9063 A2.5,2.5 0 0 1 1348,663.4063 L1246,663.4063 A2.5,2.5 0 0 1 1243.5,660.9063 L1243.5,611.6094 A2.5,2.5 0 0 1 1246,609.1094 " fill="#FFFFFF" style="stroke:#000000;stroke-width:1.0;"/><line style="stroke:#000000;stroke-width:1.0;" x1="1243.5" x2="1296.5" y1="630.1094" y2="630.1094"/><text fill="#000000" font-family="Verdana" font-size="14" lengthAdjust="spacing" textLength="77" x="1253.5" y="650.1045">JSONL Logs</text></g><!--entity subjects--><g id="elem_subjects"><rect fill="#FFFFFF" height="46.2969" rx="2.5" ry="2.5" style="stroke:#000000;stroke-width:1.0;" width="99" x="762.5" y="613.1094"/><rect fill="#FFFFFF" height="10" style="stroke:#000000;stroke-width:1.0;" width="15" x="841.5" y="618.1094"/><rect fill="#FFFFFF" height="2" style="stroke:#000000;stroke-width:1.0;" width="4" x="839.5" y="620.1094"/><rect fill="#FFFFFF" height="2" style="stroke:#000000;stroke-width:1.0;" width="4" x="839.5" y="624.1094"/><text fill="#000000" font-family="Verdana" font-size="14" lengthAdjust="spacing" textLength="59" x="777.5" y="646.1045">subjects</text></g><!--entity sessions--><g id="elem_sessions"><rect fill="#FFFFFF" height="46.2969" rx="2.5" ry="2.5" style="stroke:#000000;stroke-width:1.0;" width="102" x="897" y="613.1094"/><rect fill="#FFFFFF" height="10" style="stroke:#000000;stroke-width:1.0;" width="15" x="979" y="618.1094"/><rect fill="#FFFFFF" height="2" style="stroke:#000000;stroke-width:1.0;" width="4" x="977" y="620.1094"/><rect fill="#FFFFFF" height="2" style="stroke:#000000;stroke-width:1.0;" width="4" x="977" y="624.1094"/><text fill="#000000" font-family="Verdana" font-size="14" lengthAdjust="spacing" textLength="62" x="912" y="646.1045">sessions</text></g><!--entity treatment_events--><g id="elem_treatment_events"><rect fill="#FFFFFF" height="46.2969" rx="2.5" ry="2.5" style="stroke:#000000;stroke-width:1.0;" width="162" x="1034" y="613.1094"/><rect fill="#FFFFFF" height="10" style="stroke:#000000;stroke-width:1.0;" width="15" x="1176" y="618.1094"/><rect fill="#FFFFFF" height="2" style="stroke:#000000;stroke-width:1.0;" width="4" x="1174" y="620.1094"/><rect fill="#FFFFFF" height="2" style="stroke:#000000;stroke-width:1.0;" width="4" x="1174" y="624.1094"/><text fill="#000000" font-family="Verdana" font-size="14" lengthAdjust="spacing" textLength="122" x="1049" y="646.1045">treatment_events</text></g><!--entity protocols--><g id="elem_protocols"><rect fill="#FFFFFF" height="46.2969" rx="2.5" ry="2.5" style="stroke:#000000;stroke-width:1.0;" width="105" x="762.5" y="724.6094"/><rect fill="#FFFFFF" height="10" style="stroke:#000000;stroke-width:1.0;" width="15" x="847.5" y="729.6094"/><rect fill="#FFFFFF" height="2" style="stroke:#000000;stroke-width:1.0;" width="4" x="845.5" y="731.6094"/><rect fill="#FFFFFF" height="2" style="stroke:#000000;stroke-width:1.0;" width="4" x="845.5" y="735.6094"/><text fill="#000000" font-family="Verdana" font-size="14" lengthAdjust="spacing" textLength="65" x="777.5" y="757.6045">protocols</text></g><!--entity safety_log--><g id="elem_safety_log"><rect fill="#FFFFFF" height="46.2969" rx="2.5" ry="2.5" style="stroke:#000000;stroke-width:1.0;" width="109" x="902.5" y="724.6094"/><rect fill="#FFFFFF" height="10" style="stroke:#000000;stroke-width:1.0;" width="15" x="991.5" y="729.6094"/><rect fill="#FFFFFF" height="2" style="stroke:#000000;stroke-width:1.0;" width="4" x="989.5" y="731.6094"/><rect fill="#FFFFFF" height="2" style="stroke:#000000;stroke-width:1.0;" width="4" x="989.5" y="735.6094"/><text fill="#000000" font-family="Verdana" font-size="14" lengthAdjust="spacing" textLength="69" x="917.5" y="757.6045">safety_log</text></g><!--entity video.avi--><g id="elem_video.avi"><path d="M440.5,620.6094 L440.5,651.9063 A2.5,2.5 0 0 0 443,654.4063 L517,654.4063 A2.5,2.5 0 0 0 519.5,651.9063 L519.5,628.1094 L509.5,618.1094 L443,618.1094 A2.5,2.5 0 0 0 440.5,620.6094 " fill="#FFFFFF" style="stroke:#000000;stroke-width:1.0;"/><path d="M509.5,618.1094 L509.5,625.6094 A2.5,2.5 0 0 0 512,628.1094 L519.5,628.1094 " fill="#FFFFFF" style="stroke:#000000;stroke-width:1.0;"/><text fill="#000000" font-family="Verdana" font-size="14" lengthAdjust="spacing" textLength="59" x="450.5" y="641.1045">video.avi</text></g><!--entity events.json--><g id="elem_events.json"><path d="M555,620.6094 L555,651.9063 A2.5,2.5 0 0 0 557.5,654.4063 L652.5,654.4063 A2.5,2.5 0 0 0 655,651.9063 L655,628.1094 L645,618.1094 L557.5,618.1094 A2.5,2.5 0 0 0 555,620.6094 " fill="#FFFFFF" style="stroke:#000000;stroke-width:1.0;"/><path d="M645,618.1094 L645,625.6094 A2.5,2.5 0 0 0 647.5,628.1094 L655,628.1094 " fill="#FFFFFF" style="stroke:#000000;stroke-width:1.0;"/><text fill="#000000" font-family="Verdana" font-size="14" lengthAdjust="spacing" textLength="80" x="565" y="641.1045">events.json</text></g><!--entity snapshots/--><g id="elem_snapshots/"><path d="M441,732.1094 L441,763.4063 A2.5,2.5 0 0 0 443.5,765.9063 L536.5,765.9063 A2.5,2.5 0 0 0 539,763.4063 L539,739.6094 L529,729.6094 L443.5,729.6094 A2.5,2.5 0 0 0 441,732.1094 " fill="#FFFFFF" style="stroke:#000000;stroke-width:1.0;"/><path d="M529,729.6094 L529,737.1094 A2.5,2.5 0 0 0 531.5,739.6094 L539,739.6094 " fill="#FFFFFF" style="stroke:#000000;stroke-width:1.0;"/><text fill="#000000" font-family="Verdana" font-size="14" lengthAdjust="spacing" textLength="78" x="451" y="752.6045">snapshots/</text></g><!--entity Camera--><g id="elem_Camera"><rect fill="#FFFFFF" height="46.2969" rx="2.5" ry="2.5" style="stroke:#000000;stroke-width:1.0;" width="178" x="1816" y="613.1094"/><rect fill="#FFFFFF" height="10" style="stroke:#000000;stroke-width:1.0;" width="15" x="1974" y="618.1094"/><rect fill="#FFFFFF" height="2" style="stroke:#000000;stroke-width:1.0;" width="4" x="1972" y="620.1094"/><rect fill="#FFFFFF" height="2" style="stroke:#000000;stroke-width:1.0;" width="4" x="1972" y="624.1094"/><text fill="#000000" font-family="Verdana" font-size="14" lengthAdjust="spacing" textLength="138" x="1831" y="646.1045">Allied Vision Camera</text></g><!--entity Laser--><g id="elem_Laser"><rect fill="#FFFFFF" height="46.2969" rx="2.5" ry="2.5" style="stroke:#000000;stroke-width:1.0;" width="125" x="1655.5" y="613.1094"/><rect fill="#FFFFFF" height="10" style="stroke:#000000;stroke-width:1.0;" width="15" x="1760.5" y="618.1094"/><rect fill="#FFFFFF" height="2" style="stroke:#000000;stroke-width:1.0;" width="4" x="1758.5" y="620.1094"/><rect fill="#FFFFFF" height="2" style="stroke:#000000;stroke-width:1.0;" width="4" x="1758.5" y="624.1094"/><text fill="#000000" font-family="Verdana" font-size="14" lengthAdjust="spacing" textLength="85" x="1670.5" y="646.1045">Arroyo Laser</text></g><!--entity Arduino--><g id="elem_Arduino"><rect fill="#FFFFFF" height="46.2969" rx="2.5" ry="2.5" style="stroke:#000000;stroke-width:1.0;" width="131" x="1489.5" y="613.1094"/><rect fill="#FFFFFF" height="10" style="stroke:#000000;stroke-width:1.0;" width="15" x="1600.5" y="618.1094"/><rect fill="#FFFFFF" height="2" style="stroke:#000000;stroke-width:1.0;" width="4" x="1598.5" y="620.1094"/><rect fill="#FFFFFF" height="2" style="stroke:#000000;stroke-width:1.0;" width="4" x="1598.5" y="624.1094"/><text fill="#000000" font-family="Verdana" font-size="14" lengthAdjust="spacing" textLength="91" x="1504.5" y="646.1045">Arduino GPIO</text></g><g id="elem_GMN53"><path d="M749.5,370.1094 L749.5,440.6406 L1018.5,440.6406 L1018.5,380.1094 L1008.5,370.1094 L749.5,370.1094 " fill="#FFFFFF" style="stroke:#000000;stroke-width:1.0;"/><path d="M1008.5,370.1094 L1008.5,380.1094 L1018.5,380.1094 L1008.5,370.1094 " fill="#FFFFFF" style="stroke:#000000;stroke-width:1.0;"/><text fill="#000000" font-family="Verdana" font-size="13" font-weight="bold" lengthAdjust="spacing" textLength="199" x="755.5" y="387.1763">Two-Tier Logging Strategy:</text><text fill="#000000" font-family="Verdana" font-size="13" lengthAdjust="spacing" textLength="248" x="755.5" y="402.3091">- High-frequency (100Hz+): JSONL files</text><text fill="#000000" font-family="Verdana" font-size="13" lengthAdjust="spacing" textLength="203" x="755.5" y="417.4419">- Event-based: SQLite database</text><text fill="#000000" font-family="Verdana" font-size="13" lengthAdjust="spacing" textLength="237" x="755.5" y="432.5747">- All events immutable (append-only)</text></g><g id="elem_GMN56"><path d="M2029,608.6094 L2029,664.0078 L2311,664.0078 L2311,618.6094 L2301,608.6094 L2029,608.6094 " fill="#FFFFFF" style="stroke:#000000;stroke-width:1.0;"/><path d="M2301,608.6094 L2301,618.6094 L2311,618.6094 L2301,608.6094 " fill="#FFFFFF" style="stroke:#000000;stroke-width:1.0;"/><text fill="#000000" font-family="Verdana" font-size="13" font-weight="bold" lengthAdjust="spacing" textLength="76" x="2035" y="625.6763">WARNING:</text><text fill="#000000" font-family="Verdana" font-size="13" lengthAdjust="spacing" textLength="161" x="2115" y="625.6763">Database NOT encrypted</text><text fill="#000000" font-family="Verdana" font-size="13" font-weight="bold" lengthAdjust="spacing" textLength="52" x="2035" y="640.8091">Status:</text><text fill="#000000" font-family="Verdana" font-size="13" lengthAdjust="spacing" textLength="130" x="2091" y="640.8091">Research mode only</text><text fill="#000000" font-family="Verdana" font-size="13" font-weight="bold" lengthAdjust="spacing" textLength="72" x="2035" y="655.9419">Required:</text><text fill="#000000" font-family="Verdana" font-size="13" lengthAdjust="spacing" textLength="185" x="2111" y="655.9419">SQLCipher before clinical use</text></g><!--link SubjectUI to SessionMgr--><g id="link_SubjectUI_SessionMgr"><path d="M173.68,138.7894 C159.51,164.2994 136.25,206.1694 121.03,233.5594 " fill="none" id="SubjectUI-to-SessionMgr" style="stroke:#000000;stroke-width:1.0;"/><polygon fill="#000000" points="118.47,238.1594,126.3374,232.2345,120.8982,233.7886,119.3442,228.3494,118.47,238.1594" style="stroke:#000000;stroke-width:1.0;"/><text fill="#000000" font-family="Verdana" font-size="13" lengthAdjust="spacing" textLength="107" x="157" y="183.6763">subject_selected</text></g><!--link LaserUI to ProtocolEng--><g id="link_LaserUI_ProtocolEng"><path d="M539.87,138.7794 C548.57,153.1694 560.69,172.0594 573,187.6094 C586.05,204.0894 602.21,221.1294 615.71,234.5894 " fill="none" id="LaserUI-to-ProtocolEng" style="stroke:#000000;stroke-width:1.0;"/><polygon fill="#000000" points="619.44,238.2894,615.8488,229.1186,615.8831,234.7753,610.2264,234.8096,619.44,238.2894" style="stroke:#000000;stroke-width:1.0;"/><text fill="#000000" font-family="Verdana" font-size="13" lengthAdjust="spacing" textLength="100" x="574" y="183.6763">power_changed</text></g><!--link ProtocolUI to ProtocolEng--><g id="link_ProtocolUI_ProtocolEng"><path d="M844.59,138.6394 C801.2,164.8894 728.89,208.6394 683.69,235.9894 " fill="none" id="ProtocolUI-to-ProtocolEng" style="stroke:#000000;stroke-width:1.0;"/><polygon fill="#000000" points="679.4,238.5894,689.1676,237.3266,683.671,235.9896,685.008,230.4931,679.4,238.5894" style="stroke:#000000;stroke-width:1.0;"/><text fill="#000000" font-family="Verdana" font-size="13" lengthAdjust="spacing" textLength="102" x="791" y="183.6763">protocol_loaded</text></g><!--reverse link SafetyUI to SafetyMgr--><g id="link_SafetyUI_SafetyMgr"><path d="M364.43,143.6494 C367.56,157.5394 372.72,174.2894 381,187.6094 C393.32,207.4294 412.45,225.2994 428.79,238.3994 " fill="none" id="SafetyUI-backto-SafetyMgr" style="stroke:#000000;stroke-width:1.0;"/><polygon fill="#000000" points="363.37,138.6794,361.3369,148.3161,364.4137,143.5692,369.1606,146.6461,363.37,138.6794" style="stroke:#000000;stroke-width:1.0;"/><text fill="#000000" font-family="Verdana" font-size="13" lengthAdjust="spacing" textLength="141" x="382" y="183.6763">safety_state_changed</text></g><!--link SessionMgr to RecordMgr--><g id="link_SessionMgr_RecordMgr"><path d="M142.93,284.6394 C186.1,310.3994 257.37,352.9194 302.44,379.8094 " fill="none" id="SessionMgr-to-RecordMgr" style="stroke:#000000;stroke-width:1.0;"/><polygon fill="#000000" points="306.99,382.5294,301.299,374.4912,302.6925,379.9737,297.21,381.3672,306.99,382.5294" style="stroke:#000000;stroke-width:1.0;"/><text fill="#000000" font-family="Verdana" font-size="13" lengthAdjust="spacing" textLength="97" x="219" y="327.6763">start_recording</text></g><!--link ProtocolEng to LaserCtrl--><g id="link_ProtocolEng_LaserCtrl"><path d="M717.64,262.8594 C919.56,264.1194 1473.22,271.5194 1650,314.6094 C1695.44,325.6894 1740.2,356.7894 1768.16,379.3394 " fill="none" id="ProtocolEng-to-LaserCtrl" style="stroke:#000000;stroke-width:1.0;"/><polygon fill="#000000" points="1772.16,382.5994,1767.6973,373.8196,1768.2794,379.4464,1762.6526,380.0285,1772.16,382.5994" style="stroke:#000000;stroke-width:1.0;"/><text fill="#000000" font-family="Verdana" font-size="13" lengthAdjust="spacing" textLength="65" x="1694" y="327.6763">set_power</text></g><!--link ProtocolEng to CameraCtrl--><g id="link_ProtocolEng_CameraCtrl"><path d="M717.72,262.0094 C898.71,261.4394 1374.67,265.1994 1768,314.6094 C1822.49,321.4494 1838.26,318.6094 1889,339.6094 C1913.2,349.6194 1937.82,365.7594 1956.46,379.4494 " fill="none" id="ProtocolEng-to-CameraCtrl" style="stroke:#000000;stroke-width:1.0;"/><polygon fill="#000000" points="1960.58,382.5094,1955.726,373.9398,1956.5612,379.5346,1950.9663,380.3698,1960.58,382.5094" style="stroke:#000000;stroke-width:1.0;"/><text fill="#000000" font-family="Verdana" font-size="13" lengthAdjust="spacing" textLength="94" x="1868" y="327.6763">capture_frame</text></g><!--link SafetyMgr to GPIOCtrl--><g id="link_SafetyMgr_GPIOCtrl"><path d="M533.26,281.6694 C539.24,282.8094 545.2,283.8194 551,284.6094 C935.21,337.1094 1039.56,256.7094 1423,314.6094 C1464.9,320.9394 1476.33,322.2994 1515,339.6094 C1538.72,350.2294 1563.22,366.0594 1582.03,379.4394 " fill="none" id="SafetyMgr-to-GPIOCtrl" style="stroke:#000000;stroke-width:1.0;"/><polygon fill="#000000" points="1586.2,382.4294,1581.2437,373.9185,1582.1459,379.503,1576.5614,380.4052,1586.2,382.4294" style="stroke:#000000;stroke-width:1.0;"/><text fill="#000000" font-family="Verdana" font-size="13" lengthAdjust="spacing" textLength="105" x="1495" y="327.6763">check_interlocks</text></g><!--link CameraCtrl to Camera--><g id="link_CameraCtrl_Camera"><path d="M1979.89,428.9394 C1964.54,471.1894 1931.3,562.6994 1914.76,608.2394 " fill="none" id="CameraCtrl-to-Camera" style="stroke:#000000;stroke-width:1.0;"/><polygon fill="#000000" points="1913.02,613.0294,1919.8618,605.9449,1914.7333,608.3321,1912.3461,603.2036,1913.02,613.0294" style="stroke:#000000;stroke-width:1.0;"/><text fill="#000000" font-family="Verdana" font-size="13" lengthAdjust="spacing" textLength="69" x="1964" y="484.1763">VmbPy API</text></g><!--link Camera to CameraCtrl--><g id="link_Camera_CameraCtrl"><path d="M1916.04,612.8894 C1932.59,581.9394 1966.76,526.2494 2012,496.1094 C2023.48,488.4594 2033.59,499.0494 2042,488.1094 C2055.84,470.0894 2040.44,448.6294 2022.59,432.2494 " fill="none" id="Camera-to-CameraCtrl" style="stroke:#000000;stroke-width:1.0;"/><polygon fill="#000000" points="2018.51,428.6294,2022.5962,437.5905,2022.2533,431.9441,2027.8998,431.6012,2018.51,428.6294" style="stroke:#000000;stroke-width:1.0;"/><text fill="#000000" font-family="Verdana" font-size="13" lengthAdjust="spacing" textLength="81" x="2048" y="484.1763">frame_ready</text></g><!--link LaserCtrl to Laser--><g id="link_LaserCtrl_Laser"><path d="M1741.06,428.6794 C1723.06,438.7594 1705.16,452.6694 1695,471.1094 C1671.07,514.5594 1689.84,573.9194 1704.62,608.0194 " fill="none" id="LaserCtrl-to-Laser" style="stroke:#000000;stroke-width:1.0;"/><polygon fill="#000000" points="1706.77,612.8694,1706.8015,603.0206,1704.7539,608.2939,1699.4806,606.2463,1706.77,612.8694" style="stroke:#000000;stroke-width:1.0;"/><text fill="#000000" font-family="Verdana" font-size="13" lengthAdjust="spacing" textLength="97" x="1696" y="484.1763">Serial @ 38400</text></g><!--link Laser to LaserCtrl--><g id="link_Laser_LaserCtrl"><path d="M1734.89,612.6894 C1754.54,585.0994 1785.82,535.9794 1798,488.1094 C1802.48,470.4894 1802.22,450.0294 1800.83,434.0194 " fill="none" id="Laser-to-LaserCtrl" style="stroke:#000000;stroke-width:1.0;"/><polygon fill="#000000" points="1800.33,428.7694,1797.1975,438.1068,1800.802,433.747,1805.1618,437.3516,1800.33,428.7694" style="stroke:#000000;stroke-width:1.0;"/><text fill="#000000" font-family="Verdana" font-size="13" lengthAdjust="spacing" textLength="109" x="1801" y="484.1763">power_confirmed</text></g><!--link GPIOCtrl to Arduino--><g id="link_GPIOCtrl_Arduino"><path d="M1573.64,428.6294 C1555.99,437.2294 1534.91,446.4794 1515,452.6094 C1491.31,459.9094 1421.01,452.1794 1405,471.1094 C1361.89,522.0694 1445.54,579.0494 1504.32,610.6394 " fill="none" id="GPIOCtrl-to-Arduino" style="stroke:#000000;stroke-width:1.0;"/><polygon fill="#000000" points="1508.86,613.0594,1502.8051,605.2916,1504.4494,610.7042,1499.0368,612.3485,1508.86,613.0594" style="stroke:#000000;stroke-width:1.0;"/><text fill="#000000" font-family="Verdana" font-size="13" lengthAdjust="spacing" textLength="105" x="1406" y="484.1763">Serial @ 115200</text></g><!--link Arduino to GPIOCtrl--><g id="link_Arduino_GPIOCtrl"><path d="M1549.25,612.8794 C1542,580.3794 1532.66,518.5794 1552,471.1094 C1558.05,456.2594 1569.34,442.9694 1580.71,432.3694 " fill="none" id="Arduino-to-GPIOCtrl" style="stroke:#000000;stroke-width:1.0;"/><polygon fill="#000000" points="1584.57,428.8794,1575.2169,431.9647,1580.8671,432.2392,1580.5926,437.8894,1584.57,428.8794" style="stroke:#000000;stroke-width:1.0;"/><text fill="#000000" font-family="Verdana" font-size="13" lengthAdjust="spacing" textLength="101" x="1553" y="484.1763">interlock_status</text></g><!--link SessionMgr to DB--><g id="link_SessionMgr_DB"><path d="M185.66,280.6994 C191.53,282.0194 197.36,283.3394 203,284.6094 C312.3,309.2194 346.57,294.2294 449,339.6094 C559.37,388.4994 596.05,401.4794 671,496.1094 C691.355,521.8044 705.24,555.8794 714.0925,583.8606 C715.1991,587.3583 716.227,590.7607 717.1791,594.0397 C717.6551,595.6792 718.1122,597.2878 718.5507,598.862 C718.6604,599.2555 718.7688,599.6469 718.8761,600.0361 " fill="none" id="SessionMgr-to-DB" style="stroke:#000000;stroke-width:1.0;"/><polygon fill="#000000" points="718.8761,600.0361,720.3402,590.2967,717.5472,595.216,712.6279,592.423,718.8761,600.0361" style="stroke:#000000;stroke-width:1.0;"/><text fill="#000000" font-family="Verdana" font-size="13" lengthAdjust="spacing" textLength="85" x="632" y="410.1763">save_session</text></g><!--link EventLog to DB--><g id="link_EventLog_DB"><path d="M351.91,281.2094 C357.66,282.4894 363.42,283.6494 369,284.6094 C442.28,297.2394 985.62,284.9094 1036,339.6094 C1239.01,560.0494 836.5,404.4194 746,496.1094 C735.22,507.0294 728.595,520.9931 724.7328,535.8411 C723.7673,539.5531 722.9744,543.3203 722.3324,547.1091 C722.0115,549.0035 721.7282,550.9033 721.48,552.8042 C721.4179,553.2794 721.3581,553.7547 721.3003,554.2301 C721.2715,554.4677 721.2432,554.7054 721.2154,554.943 " fill="none" id="EventLog-to-DB" style="stroke:#000000;stroke-width:1.0;"/><polygon fill="#000000" points="721.2154,554.943,726.2338,546.4686,721.7962,549.9769,718.2879,545.5393,721.2154,554.943" style="stroke:#000000;stroke-width:1.0;"/><text fill="#000000" font-family="Verdana" font-size="13" lengthAdjust="spacing" textLength="73" x="1093" y="410.1763">write_event</text></g><!--link EventLog to JSONL--><g id="link_EventLog_JSONL"><path d="M351.88,281.4294 C357.64,282.6594 363.4,283.7494 369,284.6094 C457.72,298.2594 1104.56,283.9694 1175,339.6094 C1197.01,356.9994 1260.33,552.1794 1286,624.6894 " fill="none" id="EventLog-to-JSONL" style="stroke:#000000;stroke-width:1.0;"/><polygon fill="#000000" points="1287.78,629.7294,1288.569,619.9122,1286.1219,625.0123,1281.0217,622.5652,1287.78,629.7294" style="stroke:#000000;stroke-width:1.0;"/><text fill="#000000" font-family="Verdana" font-size="13" lengthAdjust="spacing" textLength="91" x="1229" y="410.1763">append_event</text></g><!--link RecordMgr to SessionData--><g id="link_RecordMgr_SessionData"><path d="M349.96,428.9394 C357.515,457.2344 370.9675,507.6219 382.6813,551.4994 C385.6097,562.4688 388.4295,573.0313 391.0212,582.74 C392.3171,587.5943 393.556,592.2352 394.723,596.6068 C395.3065,598.7926 395.872,600.9111 396.4177,602.9552 C396.5541,603.4663 396.6893,603.9727 396.8232,604.4743 " fill="none" id="RecordMgr-to-SessionData" style="stroke:#000000;stroke-width:1.0;"/><polygon fill="#000000" points="396.8232,604.4743,398.3667,594.7472,395.5336,599.6435,390.6373,596.8104,396.8232,604.4743" style="stroke:#000000;stroke-width:1.0;"/><text fill="#000000" font-family="Verdana" font-size="13" lengthAdjust="spacing" textLength="71" x="367" y="484.1763">save_video</text></g><!--link SafetyMgr to DB--><g id="link_SafetyMgr_DB"><path d="M533.28,281.5494 C539.25,282.7194 545.21,283.7594 551,284.6094 C637.41,297.2394 1276.84,274.4694 1335,339.6094 C1368.45,377.0694 1367.56,414.3694 1335,452.6094 C1270.79,528.0194 1213.63,479.1294 1115,488.1094 C1104.79,489.0394 753.65,489.2894 746,496.1094 C734.5475,506.3219 727.5813,519.9263 723.5867,534.6345 C722.5881,538.3116 721.7752,542.0577 721.1244,545.837 C720.7989,547.7266 720.514,549.6246 720.2667,551.5264 C720.143,552.4773 720.0287,553.4292 719.9235,554.3814 C719.8972,554.6195 719.8714,554.8576 719.8462,555.0957 " fill="none" id="SafetyMgr-to-DB" style="stroke:#000000;stroke-width:1.0;"/><polygon fill="#000000" points="719.8462,555.0957,724.771,546.5665,720.3723,550.1235,716.8154,545.7248,719.8462,555.0957" style="stroke:#000000;stroke-width:1.0;"/><text fill="#000000" font-family="Verdana" font-size="13" lengthAdjust="spacing" textLength="108" x="1360" y="410.1763">log_safety_event</text></g><!--link EventLog to GMN53--><g id="link_EventLog_GMN53"><path d="M351.52,280.7794 C357.41,282.1694 363.3,283.4694 369,284.6094 C529.46,316.5894 576.24,292.7594 733,339.6094 C759.8,347.6194 788.21,359.0194 813.07,370.0494 " fill="none" id="EventLog-GMN53" style="stroke:#000000;stroke-width:1.0;stroke-dasharray:7.0,7.0;"/></g><!--link DB to GMN56--><g id="link_DB_GMN56"><path d="M720.9558,554.5368 C720.978,554.2568 721.0007,553.9768 721.024,553.6967 C721.1172,552.5764 721.2199,551.4556 721.3323,550.3352 C721.7821,545.8535 722.3891,541.3771 723.1812,536.9567 C724.7655,528.1157 727.0905,519.4985 730.3808,511.5098 C736.9613,495.5325 747.4025,482.0694 763.5,474.3594 C825.08,444.8694 1928.83,449.6994 1992.5,474.3594 C2062.09,501.3094 2121.14,569.6494 2150.37,608.3294 " fill="none" id="DB-GMN56" style="stroke:#000000;stroke-width:1.0;stroke-dasharray:7.0,7.0;"/></g><!--SRC=[RLNVRzj637xNNy7vPKa6TSdQ0KCm57ESjl7W9bwKj0z38PmbMhv6kjFkpZ6qeV_xU3yadPpwmRR8p-H7VYJzWzbXWz3MZ8iaCTpK2DVCC7XVomEay72NBUQmOXeLBAGmIjQGTTfWaoGjAvvOXJ1xjDwbCAYsh412TwXcy5y2zFexss- -Oc7WCoyhD5-0QGYcnwL7B5Y3YiK0R-dzFdlaTeRUcx4jccuItbbw_rf98mkYVRNdTOdAGNeZWRv5XSpRjkO5CrmAgbRXM0HgROqVcI2WZn5i7oir8JA1EDE06AYy4nKNE6529Wzwzup2m4fMVH1de6VlliT2gfABQfB8MssYk9mRfie3KmZpZJQA5QwkgJgXzq7QEeJpreLHTQp04SWPHyo7zVBk669j3X6pSkErHgKvZP4eXYQNPDzGJ9XbVwsueJcycjaWrrS1uD9eFplwIsJoGiGcev2PXlgMe-rUx6f3moSHd4vvBIjl_ERUjzBE2yp-pEvkLrOHxVYunmcWduxtxjcZWiqLEzBVSjglsJClKRvYptnsvF1aNttLKXoxj62jtacZVvu5Yd5FrxjEq-3Mq4i-23olQuubVEAEeHSsqZY0b9ATz8gEslQ-Si-5T5ewNp3O_3_2unACTBkI35iDQVessWwuX21Qhh6c3ooJiC4E6Mq0GLjvG9KNEoOgmerx-ZreU2BTM4dWVk_XzpGTLy-cz_9gmmmEeOcyfMtftynNISJNPXeMolxSC6LorIzU4hEms64HB1PDxafuWHftYc05QyrUORvLP4r6hXROBus5xR1uohczhBKidhGbJMGTvo1q4iKTqz1lFpMRTGVpzJ8P-GrioP-XuZGmVy3htzwSdoT3LelfDOzG5nU__a8mIw2_AhvpSA9v9LYjJmELbzMwAgc1hEmycHTj2wfBiUMg8N5w0aVz63hXjDphM4IxQSSgqkcmwZzZ7cv4qX_JqNrGT6lycPXw_TfV0cjR56L0Z7CH3RbRyf38xVQHeYuF7PSy3A8FbGX9HsuZZP4DoEtqpf-TFHna-i2fL_QlmDxxZ4wumQgxF3jpa1HkUBLBjmh_sTCTxU3aulpyvj-VJYy3TNiuT82wuAazhoM9wkzhVt03X2u5-0C4l6dsvAExS-AhJwMekzE4le5b7RWhocyizUkhGFhp_FvsUVk1A3ezt3c_lNi0ugUwrcw-nsLEFWkxHurC5JjeP8bWqmJ8FPN55T4b415Uy7P7pTZWrkfTr5ouUxSd-WEh_m40]--></g></svg>