<?xml version="1.0" encoding="us-ascii" standalone="no"?><svg xmlns="http://www.w3.org/2000/svg" xmlns:xlink="http://www.w3.org/1999/xlink" contentStyleType="text/css" height="920px" preserveAspectRatio="none" style="width:3405px;height:920px;background:#FFFFFF;" version="1.1" viewBox="0 0 3405 920" width="3405px" zoomAndPan="magnify"><defs/><g><text fill="#000000" font-family="Verdana" font-size="22" font-weight="bold" lengthAdjust="spacing" textLength="583" x="1406.5" y="35.4209">Data Architecture - Two-Tier Logging Strategy</text><!--cluster Application Core--><g id="cluster_Application Core"><path d="M1994.5,57.6094 L2125.5,57.6094 A3.75,3.75 0 0 1 2128,60.1094 L2135,79.9063 L2363.5,79.9063 A2.5,2.5 0 0 1 2366,82.4063 L2366,275.1094 A2.5,2.5 0 0 1 2363.5,277.6094 L1994.5,277.6094 A2.5,2.5 0 0 1 1992,275.1094 L1992,60.1094 A2.5,2.5 0 0 1 1994.5,57.6094 " fill="#FFFFFF" style="stroke:#000000;stroke-width:1.0;"/><line style="stroke:#000000;stroke-width:1.0;" x1="1992" x2="2135" y1="79.9063" y2="79.9063"/><text fill="#000000" font-family="Verdana" font-size="14" font-weight="bold" lengthAdjust="spacing" textLength="130" x="1996" y="72.6045">Application Core</text></g><!--cluster High-Frequency Data (100Hz+)--><g id="cluster_High-Frequency Data (100Hz+)"><path d="M1025.5,361.6094 L1270.5,361.6094 A3.75,3.75 0 0 1 1273,364.1094 L1280,383.9063 L2630.5,383.9063 A2.5,2.5 0 0 1 2633,386.4063 L2633,552.6094 A2.5,2.5 0 0 1 2630.5,555.1094 L1025.5,555.1094 A2.5,2.5 0 0 1 1023,552.6094 L1023,364.1094 A2.5,2.5 0 0 1 1025.5,361.6094 " fill="#FFFFFF" style="stroke:#000000;stroke-width:1.0;"/><line style="stroke:#000000;stroke-width:1.0;" x1="1023" x2="1280" y1="383.9063" y2="383.9063"/><text fill="#000000" font-family="Verdana" font-size="14" font-weight="bold" lengthAdjust="spacing" textLength="244" x="1027" y="376.6045">High-Frequency Data (100Hz+)</text></g><!--cluster SessionData--><g id="cluster_SessionData"><path d="M1555.5,412.6094 L1682.5,412.6094 A3.75,3.75 0 0 1 1685,415.1094 L1692,434.9063 L2598.5,434.9063 A2.5,2.5 0 0 1 2601,437.4063 L2601,513.1094 A2.5,2.5 0 0 1 2598.5,515.6094 L1555.5,515.6094 A2.5,2.5 0 0 1 1553,513.1094 L1553,415.1094 A2.5,2.5 0 0 1 1555.5,412.6094 " fill="#FFFFFF" style="stroke:#000000;stroke-width:1.0;"/><line style="stroke:#000000;stroke-width:1.0;" x1="1553" x2="1692" y1="434.9063" y2="434.9063"/><text fill="#000000" font-family="Verdana" font-size="14" font-weight="bold" lengthAdjust="spacing" textLength="126" x="1557" y="427.6045">Session Folders</text></g><!--cluster Event-Based Data (Queryable)--><g id="cluster_Event-Based Data (Queryable)"><path d="M13.5,341.6094 L250.5,341.6094 A3.75,3.75 0 0 1 253,344.1094 L260,363.9063 L996.5,363.9063 A2.5,2.5 0 0 1 999,366.4063 L999,807.1094 A2.5,2.5 0 0 1 996.5,809.6094 L13.5,809.6094 A2.5,2.5 0 0 1 11,807.1094 L11,344.1094 A2.5,2.5 0 0 1 13.5,341.6094 " fill="#FFFFFF" style="stroke:#000000;stroke-width:1.0;"/><line style="stroke:#000000;stroke-width:1.0;" x1="11" x2="260" y1="363.9063" y2="363.9063"/><text fill="#000000" font-family="Verdana" font-size="14" font-weight="bold" lengthAdjust="spacing" textLength="236" x="15" y="356.6045">Event-Based Data (Queryable)</text></g><!--cluster DB--><g id="cluster_DB"><path d="M325,402.6094 C325,392.6094 646,392.6094 646,392.6094 C646,392.6094 967,392.6094 967,402.6094 L967,767.6094 C967,777.6094 646,777.6094 646,777.6094 C646,777.6094 325,777.6094 325,767.6094 L325,402.6094 " fill="#FFFFFF" style="stroke:#000000;stroke-width:1.0;"/><path d="M325,402.6094 C325,412.6094 646,412.6094 646,412.6094 C646,412.6094 967,412.6094 967,402.6094 " fill="none" style="stroke:#000000;stroke-width:1.0;"/><text fill="#000000" font-family="Verdana" font-size="14" font-weight="bold" lengthAdjust="spacing" textLength="129" x="581.5" y="427.6045">SQLite Database</text></g><!--cluster File System Storage--><g id="cluster_File System Storage"><path d="M2583.5,609.6094 L2741.5,609.6094 A3.75,3.75 0 0 1 2744,612.1094 L2751,631.9063 L3395.5,631.9063 A2.5,2.5 0 0 1 3398,634.4063 L3398,910.8294 A2.5,2.5 0 0 1 3395.5,913.3294 L2583.5,913.3294 A2.5,2.5 0 0 1 2581,910.8294 L2581,612.1094 A2.5,2.5 0 0 1 2583.5,609.6094 " fill="#FFFFFF" style="stroke:#000000;stroke-width:1.0;"/><line style="stroke:#000000;stroke-width:1.0;" x1="2581" x2="2751" y1="631.9063" y2="631.9063"/><text fill="#000000" font-family="Verdana" font-size="14" font-weight="bold" lengthAdjust="spacing" textLength="157" x="2585" y="624.6045">File System Storage</text></g><!--cluster DataRoot--><g id="cluster_DataRoot"><path d="M2615.5,660.6094 L2655.5,660.6094 A3.75,3.75 0 0 1 2658,663.1094 L2665,682.9063 L3363.5,682.9063 A2.5,2.5 0 0 1 3366,685.4063 L3366,878.8294 A2.5,2.5 0 0 1 3363.5,881.3294 L2615.5,881.3294 A2.5,2.5 0 0 1 2613,878.8294 L2613,663.1094 A2.5,2.5 0 0 1 2615.5,660.6094 " fill="#FFFFFF" style="stroke:#000000;stroke-width:1.0;"/><line style="stroke:#000000;stroke-width:1.0;" x1="2613" x2="2665" y1="682.9063" y2="682.9063"/><text fill="#000000" font-family="Verdana" font-size="14" font-weight="bold" lengthAdjust="spacing" textLength="39" x="2617" y="675.6045">data/</text></g><!--entity Protocol--><g id="elem_Protocol"><rect fill="#FFFFFF" height="46.2969" rx="2.5" ry="2.5" style="stroke:#000000;stroke-width:1.0;" width="149" x="2007.5" y="92.6094"/><rect fill="#FFFFFF" height="10" style="stroke:#000000;stroke-width:1.0;" width="15" x="2136.5" y="97.6094"/><rect fill="#FFFFFF" height="2" style="stroke:#000000;stroke-width:1.0;" width="4" x="2134.5" y="99.6094"/><rect fill="#FFFFFF" height="2" style="stroke:#000000;stroke-width:1.0;" width="4" x="2134.5" y="103.6094"/><text fill="#000000" font-family="Verdana" font-size="14" lengthAdjust="spacing" textLength="109" x="2022.5" y="125.6045">Protocol Engine</text></g><!--entity Logger--><g id="elem_Logger"><rect fill="#FFFFFF" height="46.2969" rx="2.5" ry="2.5" style="stroke:#000000;stroke-width:1.0;" width="131" x="2008.5" y="215.6094"/><rect fill="#FFFFFF" height="10" style="stroke:#000000;stroke-width:1.0;" width="15" x="2119.5" y="220.6094"/><rect fill="#FFFFFF" height="2" style="stroke:#000000;stroke-width:1.0;" width="4" x="2117.5" y="222.6094"/><rect fill="#FFFFFF" height="2" style="stroke:#000000;stroke-width:1.0;" width="4" x="2117.5" y="226.6094"/><text fill="#000000" font-family="Verdana" font-size="14" lengthAdjust="spacing" textLength="91" x="2023.5" y="248.6045">Event Logger</text></g><!--entity Session--><g id="elem_Session"><rect fill="#FFFFFF" height="46.2969" rx="2.5" ry="2.5" style="stroke:#000000;stroke-width:1.0;" width="159" x="2191.5" y="92.6094"/><rect fill="#FFFFFF" height="10" style="stroke:#000000;stroke-width:1.0;" width="15" x="2330.5" y="97.6094"/><rect fill="#FFFFFF" height="2" style="stroke:#000000;stroke-width:1.0;" width="4" x="2328.5" y="99.6094"/><rect fill="#FFFFFF" height="2" style="stroke:#000000;stroke-width:1.0;" width="4" x="2328.5" y="103.6094"/><text fill="#000000" font-family="Verdana" font-size="14" lengthAdjust="spacing" textLength="119" x="2206.5" y="125.6045">Session Manager</text></g><g id="elem_GMN14"><path d="M1039,408.1094 L1039,539.1719 L1529,539.1719 L1529,418.1094 L1519,408.1094 L1039,408.1094 " fill="#FFFFFF" style="stroke:#000000;stroke-width:1.0;"/><path d="M1519,408.1094 L1519,418.1094 L1529,418.1094 L1519,408.1094 " fill="#FFFFFF" style="stroke:#000000;stroke-width:1.0;"/><text fill="#000000" font-family="Verdana" font-size="13" font-weight="bold" lengthAdjust="spacing" textLength="242" x="1045" y="425.1763">JSONL Format (100Hz sampling):</text><text fill="#000000" font-family="Verdana" font-size="13" lengthAdjust="spacing" textLength="461" x="1045" y="440.3091">{"timestamp": 1635789123.456, "voltage": 3.21, "power_estimate": 4.2}</text><text fill="#000000" font-family="Verdana" font-size="13" lengthAdjust="spacing" textLength="469" x="1045" y="455.4419">{"timestamp": 1635789123.466, "voltage": 3.19, "power_estimate": 4.15}</text><text fill="#000000" font-family="Verdana" font-size="13" lengthAdjust="spacing" textLength="12" x="1045" y="470.5747">...</text><text fill="#000000" font-family="Verdana" font-size="13" lengthAdjust="spacing" textLength="4" x="1045" y="485.7075">&#160;</text><text fill="#000000" font-family="Verdana" font-size="13" font-weight="bold" lengthAdjust="spacing" textLength="74" x="1045" y="500.8403">Rationale:</text><text fill="#000000" font-family="Verdana" font-size="13" lengthAdjust="spacing" textLength="162" x="1123" y="500.8403">SQLite write performance</text><text fill="#000000" font-family="Verdana" font-size="13" lengthAdjust="spacing" textLength="229" x="1045" y="515.9731">degrades with &gt;100 inserts/second.</text><text fill="#000000" font-family="Verdana" font-size="13" lengthAdjust="spacing" textLength="272" x="1045" y="531.106">JSONL is append-only, no parsing required.</text></g><!--entity Photodiode--><g id="elem_Photodiode"><path d="M1911,458.1094 L1911,489.4063 A2.5,2.5 0 0 0 1913.5,491.9063 L2072.5,491.9063 A2.5,2.5 0 0 0 2075,489.4063 L2075,465.6094 L2065,455.6094 L1913.5,455.6094 A2.5,2.5 0 0 0 1911,458.1094 " fill="#FFFFFF" style="stroke:#000000;stroke-width:1.0;"/><path d="M2065,455.6094 L2065,463.1094 A2.5,2.5 0 0 0 2067.5,465.6094 L2075,465.6094 " fill="#FFFFFF" style="stroke:#000000;stroke-width:1.0;"/><text fill="#000000" font-family="Verdana" font-size="14" lengthAdjust="spacing" textLength="144" x="1921" y="478.6045">photodiode_log.jsonl</text></g><!--entity CameraLog--><g id="elem_CameraLog"><path d="M2110.5,458.1094 L2110.5,489.4063 A2.5,2.5 0 0 0 2113,491.9063 L2287,491.9063 A2.5,2.5 0 0 0 2289.5,489.4063 L2289.5,465.6094 L2279.5,455.6094 L2113,455.6094 A2.5,2.5 0 0 0 2110.5,458.1094 " fill="#FFFFFF" style="stroke:#000000;stroke-width:1.0;"/><path d="M2279.5,455.6094 L2279.5,463.1094 A2.5,2.5 0 0 0 2282,465.6094 L2289.5,465.6094 " fill="#FFFFFF" style="stroke:#000000;stroke-width:1.0;"/><text fill="#000000" font-family="Verdana" font-size="14" lengthAdjust="spacing" textLength="159" x="2120.5" y="478.6045">camera_metadata.jsonl</text></g><!--entity InterlockLog--><g id="elem_InterlockLog"><path d="M1577.5,458.1094 L1577.5,489.4063 A2.5,2.5 0 0 0 1580,491.9063 L1740,491.9063 A2.5,2.5 0 0 0 1742.5,489.4063 L1742.5,465.6094 L1732.5,455.6094 L1580,455.6094 A2.5,2.5 0 0 0 1577.5,458.1094 " fill="#FFFFFF" style="stroke:#000000;stroke-width:1.0;"/><path d="M1732.5,455.6094 L1732.5,463.1094 A2.5,2.5 0 0 0 1735,465.6094 L1742.5,465.6094 " fill="#FFFFFF" style="stroke:#000000;stroke-width:1.0;"/><text fill="#000000" font-family="Verdana" font-size="14" lengthAdjust="spacing" textLength="145" x="1587.5" y="478.6045">interlock_states.jsonl</text></g><!--entity Video--><g id="elem_Video"><path d="M2478.5,458.1094 L2478.5,489.4063 A2.5,2.5 0 0 0 2481,491.9063 L2555,491.9063 A2.5,2.5 0 0 0 2557.5,489.4063 L2557.5,465.6094 L2547.5,455.6094 L2481,455.6094 A2.5,2.5 0 0 0 2478.5,458.1094 " fill="#FFFFFF" style="stroke:#000000;stroke-width:1.0;"/><path d="M2547.5,455.6094 L2547.5,463.1094 A2.5,2.5 0 0 0 2550,465.6094 L2557.5,465.6094 " fill="#FFFFFF" style="stroke:#000000;stroke-width:1.0;"/><text fill="#000000" font-family="Verdana" font-size="14" lengthAdjust="spacing" textLength="59" x="2488.5" y="478.6045">video.avi</text></g><!--entity Snapshots--><g id="elem_Snapshots"><path d="M1778,458.1094 L1778,489.4063 A2.5,2.5 0 0 0 1780.5,491.9063 L1873.5,491.9063 A2.5,2.5 0 0 0 1876,489.4063 L1876,465.6094 L1866,455.6094 L1780.5,455.6094 A2.5,2.5 0 0 0 1778,458.1094 " fill="#FFFFFF" style="stroke:#000000;stroke-width:1.0;"/><path d="M1866,455.6094 L1866,463.1094 A2.5,2.5 0 0 0 1868.5,465.6094 L1876,465.6094 " fill="#FFFFFF" style="stroke:#000000;stroke-width:1.0;"/><text fill="#000000" font-family="Verdana" font-size="14" lengthAdjust="spacing" textLength="78" x="1788" y="478.6045">snapshots/</text></g><!--entity Metadata--><g id="elem_Metadata"><path d="M2325,458.1094 L2325,489.4063 A2.5,2.5 0 0 0 2327.5,491.9063 L2440.5,491.9063 A2.5,2.5 0 0 0 2443,489.4063 L2443,465.6094 L2433,455.6094 L2327.5,455.6094 A2.5,2.5 0 0 0 2325,458.1094 " fill="#FFFFFF" style="stroke:#000000;stroke-width:1.0;"/><path d="M2433,455.6094 L2433,463.1094 A2.5,2.5 0 0 0 2435.5,465.6094 L2443,465.6094 " fill="#FFFFFF" style="stroke:#000000;stroke-width:1.0;"/><text fill="#000000" font-family="Verdana" font-size="14" lengthAdjust="spacing" textLength="98" x="2335" y="478.6045">metadata.json</text></g><g id="elem_GMN25"><path d="M27.5,400.6094 L27.5,546.8047 L300.5,546.8047 L300.5,410.6094 L290.5,400.6094 L27.5,400.6094 " fill="#FFFFFF" style="stroke:#000000;stroke-width:1.0;"/><path d="M290.5,400.6094 L290.5,410.6094 L300.5,410.6094 L290.5,400.6094 " fill="#FFFFFF" style="stroke:#000000;stroke-width:1.0;"/><text fill="#000000" font-family="Verdana" font-size="13" font-weight="bold" lengthAdjust="spacing" textLength="227" x="33.5" y="417.6763">Event-Based Logging (&lt;10Hz):</text><text fill="#000000" font-family="Verdana" font-size="13" lengthAdjust="spacing" textLength="151" x="33.5" y="432.8091">- Protocol step changes</text><text fill="#000000" font-family="Verdana" font-size="13" lengthAdjust="spacing" textLength="170" x="33.5" y="447.9419">- Laser power adjustments</text><text fill="#000000" font-family="Verdana" font-size="13" lengthAdjust="spacing" textLength="194" x="33.5" y="463.0747">- Actuator position commands</text><text fill="#000000" font-family="Verdana" font-size="13" lengthAdjust="spacing" textLength="116" x="33.5" y="478.2075">- Operator actions</text><text fill="#000000" font-family="Verdana" font-size="13" lengthAdjust="spacing" textLength="158" x="33.5" y="493.3403">- Safety state transitions</text><text fill="#000000" font-family="Verdana" font-size="13" lengthAdjust="spacing" textLength="4" x="33.5" y="508.4731">&#160;</text><text fill="#000000" font-family="Verdana" font-size="13" font-weight="bold" lengthAdjust="spacing" textLength="74" x="33.5" y="523.606">Rationale:</text><text fill="#000000" font-family="Verdana" font-size="13" lengthAdjust="spacing" textLength="150" x="111.5" y="523.606">Queryable for analytics,</text><text fill="#000000" font-family="Verdana" font-size="13" lengthAdjust="spacing" textLength="252" x="33.5" y="538.7388">relational integrity, transaction support.</text></g><!--entity Subjects--><g id="elem_Subjects"><rect fill="#FFFFFF" height="46.2969" rx="2.5" ry="2.5" style="stroke:#000000;stroke-width:1.0;" width="99" x="349.5" y="450.6094"/><rect fill="#FFFFFF" height="10" style="stroke:#000000;stroke-width:1.0;" width="15" x="428.5" y="455.6094"/><rect fill="#FFFFFF" height="2" style="stroke:#000000;stroke-width:1.0;" width="4" x="426.5" y="457.6094"/><rect fill="#FFFFFF" height="2" style="stroke:#000000;stroke-width:1.0;" width="4" x="426.5" y="461.6094"/><text fill="#000000" font-family="Verdana" font-size="14" lengthAdjust="spacing" textLength="59" x="364.5" y="483.6045">subjects</text></g><!--entity Sessions--><g id="elem_Sessions"><rect fill="#FFFFFF" height="46.2969" rx="2.5" ry="2.5" style="stroke:#000000;stroke-width:1.0;" width="102" x="484" y="450.6094"/><rect fill="#FFFFFF" height="10" style="stroke:#000000;stroke-width:1.0;" width="15" x="566" y="455.6094"/><rect fill="#FFFFFF" height="2" style="stroke:#000000;stroke-width:1.0;" width="4" x="564" y="457.6094"/><rect fill="#FFFFFF" height="2" style="stroke:#000000;stroke-width:1.0;" width="4" x="564" y="461.6094"/><text fill="#000000" font-family="Verdana" font-size="14" lengthAdjust="spacing" textLength="62" x="499" y="483.6045">sessions</text></g><!--entity Events--><g id="elem_Events"><rect fill="#FFFFFF" height="46.2969" rx="2.5" ry="2.5" style="stroke:#000000;stroke-width:1.0;" width="162" x="762" y="450.6094"/><rect fill="#FFFFFF" height="10" style="stroke:#000000;stroke-width:1.0;" width="15" x="904" y="455.6094"/><rect fill="#FFFFFF" height="2" style="stroke:#000000;stroke-width:1.0;" width="4" x="902" y="457.6094"/><rect fill="#FFFFFF" height="2" style="stroke:#000000;stroke-width:1.0;" width="4" x="902" y="461.6094"/><text fill="#000000" font-family="Verdana" font-size="14" lengthAdjust="spacing" textLength="122" x="777" y="483.6045">treatment_events</text></g><!--entity Protocols--><g id="elem_Protocols"><rect fill="#FFFFFF" height="46.2969" rx="2.5" ry="2.5" style="stroke:#000000;stroke-width:1.0;" width="105" x="621.5" y="450.6094"/><rect fill="#FFFFFF" height="10" style="stroke:#000000;stroke-width:1.0;" width="15" x="706.5" y="455.6094"/><rect fill="#FFFFFF" height="2" style="stroke:#000000;stroke-width:1.0;" width="4" x="704.5" y="457.6094"/><rect fill="#FFFFFF" height="2" style="stroke:#000000;stroke-width:1.0;" width="4" x="704.5" y="461.6094"/><text fill="#000000" font-family="Verdana" font-size="14" lengthAdjust="spacing" textLength="65" x="636.5" y="483.6045">protocols</text></g><!--entity Safety--><g id="elem_Safety"><rect fill="#FFFFFF" height="46.2969" rx="2.5" ry="2.5" style="stroke:#000000;stroke-width:1.0;" width="109" x="349.5" y="707.6094"/><rect fill="#FFFFFF" height="10" style="stroke:#000000;stroke-width:1.0;" width="15" x="438.5" y="712.6094"/><rect fill="#FFFFFF" height="2" style="stroke:#000000;stroke-width:1.0;" width="4" x="436.5" y="714.6094"/><rect fill="#FFFFFF" height="2" style="stroke:#000000;stroke-width:1.0;" width="4" x="436.5" y="718.6094"/><text fill="#000000" font-family="Verdana" font-size="14" lengthAdjust="spacing" textLength="69" x="364.5" y="740.6045">safety_log</text></g><!--entity Calibrations--><g id="elem_Calibrations"><rect fill="#FFFFFF" height="46.2969" rx="2.5" ry="2.5" style="stroke:#000000;stroke-width:1.0;" width="118" x="494" y="707.6094"/><rect fill="#FFFFFF" height="10" style="stroke:#000000;stroke-width:1.0;" width="15" x="592" y="712.6094"/><rect fill="#FFFFFF" height="2" style="stroke:#000000;stroke-width:1.0;" width="4" x="590" y="714.6094"/><rect fill="#FFFFFF" height="2" style="stroke:#000000;stroke-width:1.0;" width="4" x="590" y="718.6094"/><text fill="#000000" font-family="Verdana" font-size="14" lengthAdjust="spacing" textLength="78" x="509" y="740.6045">calibrations</text></g><!--entity SessionFolder--><g id="elem_SessionFolder"><path d="M2989,703.6094 L3030,703.6094 A3.75,3.75 0 0 1 3032.5,706.1094 L3039.5,724.6094 L3339,724.6094 A2.5,2.5 0 0 1 3341.5,727.1094 L3341.5,755.4063 A2.5,2.5 0 0 1 3339,757.9063 L2989,757.9063 A2.5,2.5 0 0 1 2986.5,755.4063 L2986.5,706.1094 A2.5,2.5 0 0 1 2989,703.6094 " fill="#FFFFFF" style="stroke:#000000;stroke-width:1.0;"/><line style="stroke:#000000;stroke-width:1.0;" x1="2986.5" x2="3039.5" y1="724.6094" y2="724.6094"/><text fill="#000000" font-family="Verdana" font-size="14" lengthAdjust="spacing" textLength="325" x="2996.5" y="744.6045">sessions/session_20251104_143052_abc123/</text></g><!--entity AppLogs--><g id="elem_AppLogs"><path d="M2883.5,703.6094 L2924.5,703.6094 A3.75,3.75 0 0 1 2927,706.1094 L2934,724.6094 L2948.5,724.6094 A2.5,2.5 0 0 1 2951,727.1094 L2951,755.4063 A2.5,2.5 0 0 1 2948.5,757.9063 L2883.5,757.9063 A2.5,2.5 0 0 1 2881,755.4063 L2881,706.1094 A2.5,2.5 0 0 1 2883.5,703.6094 " fill="#FFFFFF" style="stroke:#000000;stroke-width:1.0;"/><line style="stroke:#000000;stroke-width:1.0;" x1="2881" x2="2934" y1="724.6094" y2="724.6094"/><text fill="#000000" font-family="Verdana" font-size="14" lengthAdjust="spacing" textLength="34" x="2891" y="744.6045">logs/</text></g><!--entity Backups--><g id="elem_Backups"><path d="M2754.5,703.6094 L2795.5,703.6094 A3.75,3.75 0 0 1 2798,706.1094 L2805,724.6094 L2843.5,724.6094 A2.5,2.5 0 0 1 2846,727.1094 L2846,755.4063 A2.5,2.5 0 0 1 2843.5,757.9063 L2754.5,757.9063 A2.5,2.5 0 0 1 2752,755.4063 L2752,706.1094 A2.5,2.5 0 0 1 2754.5,703.6094 " fill="#FFFFFF" style="stroke:#000000;stroke-width:1.0;"/><line style="stroke:#000000;stroke-width:1.0;" x1="2752" x2="2805" y1="724.6094" y2="724.6094"/><text fill="#000000" font-family="Verdana" font-size="14" lengthAdjust="spacing" textLength="64" x="2762" y="744.6045">backups/</text></g><!--entity DBFile--><g id="elem_DBFile"><path d="M2637,718.1094 C2637,708.1094 2677,708.1094 2677,708.1094 C2677,708.1094 2717,708.1094 2717,718.1094 L2717,743.4063 C2717,753.4063 2677,753.4063 2677,753.4063 C2677,753.4063 2637,753.4063 2637,743.4063 L2637,718.1094 " fill="#FFFFFF" style="stroke:#000000;stroke-width:1.0;"/><path d="M2637,718.1094 C2637,728.1094 2677,728.1094 2677,728.1094 C2677,728.1094 2717,728.1094 2717,718.1094 " fill="none" style="stroke:#000000;stroke-width:1.0;"/><text fill="#000000" font-family="Verdana" font-size="14" lengthAdjust="spacing" textLength="60" x="2647" y="745.1045">tosca.db</text></g><g id="elem_GMN45"><path d="M1015,703.1094 L1015,758.5078 L1435,758.5078 L1435,713.1094 L1425,703.1094 L1015,703.1094 " fill="#FFFFFF" style="stroke:#000000;stroke-width:1.0;"/><path d="M1425,703.1094 L1425,713.1094 L1435,713.1094 L1425,703.1094 " fill="#FFFFFF" style="stroke:#000000;stroke-width:1.0;"/><text fill="#000000" font-family="Verdana" font-size="13" font-weight="bold" lengthAdjust="spacing" textLength="76" x="1021" y="720.1763">WARNING:</text><text fill="#000000" font-family="Verdana" font-size="13" lengthAdjust="spacing" textLength="262" x="1101" y="720.1763">Database NOT encrypted (v0.9.12-alpha)</text><text fill="#000000" font-family="Verdana" font-size="13" font-weight="bold" lengthAdjust="spacing" textLength="136" x="1021" y="735.3091">Phase 6 Required:</text><text fill="#000000" font-family="Verdana" font-size="13" lengthAdjust="spacing" textLength="259" x="1161" y="735.3091">Migrate to SQLCipher with AES-256-GCM</text><text fill="#000000" font-family="Verdana" font-size="13" lengthAdjust="spacing" textLength="266" x="1021" y="750.4419">before clinical deployment or PHI storage.</text></g><g id="elem_GMN48"><path d="M2200.5,695.1094 L2200.5,765.6406 L2565.5,765.6406 L2565.5,705.1094 L2555.5,695.1094 L2200.5,695.1094 " fill="#FFFFFF" style="stroke:#000000;stroke-width:1.0;"/><path d="M2555.5,695.1094 L2555.5,705.1094 L2565.5,705.1094 L2555.5,695.1094 " fill="#FFFFFF" style="stroke:#000000;stroke-width:1.0;"/><text fill="#000000" font-family="Verdana" font-size="13" font-weight="bold" lengthAdjust="spacing" textLength="128" x="2206.5" y="712.1763">Backup Strategy:</text><text fill="#000000" font-family="Verdana" font-size="13" lengthAdjust="spacing" textLength="240" x="2206.5" y="727.3091">- Daily automated backup of tosca.db</text><text fill="#000000" font-family="Verdana" font-size="13" lengthAdjust="spacing" textLength="332" x="2206.5" y="742.4419">- Monthly backup of session folders to external drive</text><text fill="#000000" font-family="Verdana" font-size="13" lengthAdjust="spacing" textLength="344" x="2206.5" y="757.5747">- Before schema migrations: backup + integrity check</text></g><!--link Photodiode to GMN14--><g id="link_Photodiode_GMN14"><path d="M1986.65,455.3694 C1973.03,419.4794 1937.21,340.4794 1876.5,309.6094 C1817.47,279.5994 1642.6,292.9694 1578.5,309.6094 C1504.44,328.8394 1429.21,371.2094 1373.32,408.0594 " fill="none" id="Photodiode-GMN14" style="stroke:#000000;stroke-width:1.0;stroke-dasharray:7.0,7.0;"/></g><!--link Events to GMN25--><g id="link_Events_GMN25"><path d="M834.74,450.4394 C819.86,412.6794 784.56,339.1294 726.5,309.6094 C689.26,290.6794 389.59,294.8694 350.5,309.6094 C301.69,328.0194 257.35,365.6694 224.17,400.2494 " fill="none" id="Events-GMN25" style="stroke:#000000;stroke-width:1.0;stroke-dasharray:7.0,7.0;"/></g><!--link Protocol to Logger--><g id="link_Protocol_Logger"><path d="M2076.26,138.7194 C2074.16,147.8894 2072.04,158.6994 2071,168.6094 C2069.57,182.2794 2070.02,197.5394 2070.96,210.2294 " fill="none" id="Protocol-to-Logger" style="stroke:#000000;stroke-width:1.0;"/><polygon fill="#000000" points="2071.38,215.4994,2074.6453,206.2076,2070.979,210.5155,2066.6711,206.8492,2071.38,215.4994" style="stroke:#000000;stroke-width:1.0;"/><text fill="#000000" font-family="Verdana" font-size="13" lengthAdjust="spacing" textLength="72" x="2072" y="181.6763">log_event()</text></g><!--link Session to Logger--><g id="link_Session_Logger"><path d="M2234.11,138.7794 C2218.88,147.9694 2201.06,158.7594 2185,168.6094 C2161.34,183.1094 2134.95,199.5094 2113.85,212.6794 " fill="none" id="Session-to-Logger" style="stroke:#000000;stroke-width:1.0;"/><polygon fill="#000000" points="2109.42,215.4394,2119.1741,214.0762,2113.664,212.7958,2114.9443,207.2857,2109.42,215.4394" style="stroke:#000000;stroke-width:1.0;"/><text fill="#000000" font-family="Verdana" font-size="13" lengthAdjust="spacing" textLength="127" x="2186" y="181.6763">log_session_event()</text></g><!--link Logger to DB--><g id="link_Logger_DB"><path d="M2008.33,241.6894 C1790.88,249.0994 1103.51,276.8294 1023,333.6094 C995.645,352.9044 979.7125,386.8794 970.5863,416.4094 C969.4455,420.1006 968.411,423.7224 967.4739,427.2374 C967.3568,427.6768 967.2412,428.1145 967.1271,428.5505 " fill="none" id="Logger-to-DB" style="stroke:#000000;stroke-width:1.0;"/><polygon fill="#000000" points="967.1271,428.5505,973.2757,420.8567,968.3932,423.7134,965.5364,418.8309,967.1271,428.5505" style="stroke:#000000;stroke-width:1.0;"/><text fill="#000000" font-family="Verdana" font-size="13" lengthAdjust="spacing" textLength="166" x="1193" y="306.6763">write to treatment_events</text><text fill="#000000" font-family="Verdana" font-size="13" lengthAdjust="spacing" textLength="142" x="1205" y="321.8091">(event-based, &lt;10Hz)</text></g><!--link Logger to Photodiode--><g id="link_Logger_Photodiode"><path d="M2008.48,250.6994 C1962.61,259.9594 1907.11,274.6794 1893,293.6094 C1872.33,321.3394 1940.66,410.1094 1974.79,451.2794 " fill="none" id="Logger-to-Photodiode" style="stroke:#000000;stroke-width:1.0;"/><polygon fill="#000000" points="1978.18,455.3494,1975.4947,445.8737,1974.9805,451.5071,1969.347,450.9929,1978.18,455.3494" style="stroke:#000000;stroke-width:1.0;"/><text fill="#000000" font-family="Verdana" font-size="13" lengthAdjust="spacing" textLength="200" x="1894" y="306.6763">append to photodiode_log.jsonl</text><text fill="#000000" font-family="Verdana" font-size="13" lengthAdjust="spacing" textLength="154" x="1917" y="321.8091">(high-frequency, 100Hz)</text></g><!--link Logger to CameraLog--><g id="link_Logger_CameraLog"><path d="M2086.08,261.9494 C2110.27,306.6794 2164.37,406.7194 2188.27,450.9094 " fill="none" id="Logger-to-CameraLog" style="stroke:#000000;stroke-width:1.0;"/><polygon fill="#000000" points="2190.75,455.5094,2189.9765,445.6909,2188.3667,451.1139,2182.9438,449.5041,2190.75,455.5094" style="stroke:#000000;stroke-width:1.0;"/><text fill="#000000" font-family="Verdana" font-size="13" lengthAdjust="spacing" textLength="221" x="2119" y="306.6763">append to camera_metadata.jsonl</text><text fill="#000000" font-family="Verdana" font-size="13" lengthAdjust="spacing" textLength="54" x="2202.5" y="321.8091">(30 FPS)</text></g><!--link Logger to InterlockLog--><g id="link_Logger_InterlockLog"><path d="M2008.19,239.0094 C1907.04,239.5994 1720.37,247.1594 1676,293.6094 C1635.53,335.9694 1645.82,412.4894 1654.18,450.2694 " fill="none" id="Logger-to-InterlockLog" style="stroke:#000000;stroke-width:1.0;"/><polygon fill="#000000" points="1655.39,455.5494,1657.2825,445.884,1654.2751,450.6753,1649.4839,447.6679,1655.39,455.5494" style="stroke:#000000;stroke-width:1.0;"/><text fill="#000000" font-family="Verdana" font-size="13" lengthAdjust="spacing" textLength="203" x="1677" y="306.6763">append to interlock_states.jsonl</text><text fill="#000000" font-family="Verdana" font-size="13" lengthAdjust="spacing" textLength="51" x="1753" y="321.8091">(100Hz)</text></g><!--link Session to SessionData--><g id="link_Session_SessionData"><path d="M2350.77,123.9794 C2459.31,135.8694 2644.68,163.4094 2685,215.6094 C2721.5,262.8644 2699.7825,325.8619 2668.3138,377.6569 C2652.5794,403.5544 2634.4072,426.6513 2619.8555,443.5794 C2612.5796,452.0434 2606.2089,458.9653 2601.5005,463.924 C2601.3534,464.0789 2601.2079,464.232 2601.064,464.3831 " fill="none" id="Session-to-SessionData" style="stroke:#000000;stroke-width:1.0;"/><polygon fill="#000000" points="2601.064,464.3831,2610.1668,460.6229,2604.5117,460.7618,2604.3728,455.1067,2601.064,464.3831" style="stroke:#000000;stroke-width:1.0;"/><text fill="#000000" font-family="Verdana" font-size="13" lengthAdjust="spacing" textLength="133" x="2705" y="243.1763">create session folder</text></g><!--link Session to Video--><g id="link_Session_Video"><path d="M2350.66,125.3494 C2407.74,136.2394 2480.85,160.6994 2518,215.6094 C2567.57,288.8794 2540.36,402.8194 2525.56,450.4794 " fill="none" id="Session-to-Video" style="stroke:#000000;stroke-width:1.0;"/><polygon fill="#000000" points="2524,455.4194,2530.5414,448.0567,2525.5166,450.6549,2522.9183,445.6301,2524,455.4194" style="stroke:#000000;stroke-width:1.0;"/><text fill="#000000" font-family="Verdana" font-size="13" lengthAdjust="spacing" textLength="132" x="2544" y="243.1763">start video recording</text></g><!--link Session to Metadata--><g id="link_Session_Metadata"><path d="M2295.48,138.7794 C2303.69,147.3794 2312.23,157.7594 2318,168.6094 C2369.14,264.7194 2380.66,397.9594 2383.25,450.2594 " fill="none" id="Session-to-Metadata" style="stroke:#000000;stroke-width:1.0;"/><polygon fill="#000000" points="2383.49,455.3594,2387.0748,446.1861,2383.2617,450.3646,2379.0832,446.5514,2383.49,455.3594" style="stroke:#000000;stroke-width:1.0;"/><text fill="#000000" font-family="Verdana" font-size="13" lengthAdjust="spacing" textLength="149" x="2360" y="243.1763">save session metadata</text></g><!--link SessionData to SessionFolder--><g id="link_SessionData_SessionFolder"><path d="M2601.2913,476.5719 C2601.6495,476.658 2602.0187,476.747 2602.3987,476.8387 C2603.1587,477.0221 2603.9621,477.2167 2604.8079,477.4223 C2611.5741,479.067 2621.0523,481.4184 2632.7277,484.435 C2656.0784,490.4681 2688.2181,499.1619 2725.0288,510.1844 C2798.65,532.2294 2890.955,563.5894 2969,601.6094 C3026.78,629.7594 3087.87,693.1994 3125.96,721.3994 " fill="none" id="SessionData-to-SessionFolder" style="stroke:#000000;stroke-width:1.0;"/><polygon fill="#000000" points="3130.03,724.4194,3125.1957,715.8386,3126.018,721.4354,3120.4213,722.2578,3130.03,724.4194" style="stroke:#000000;stroke-width:1.0;"/><text fill="#000000" font-family="Verdana" font-size="13" lengthAdjust="spacing" textLength="56" x="2950" y="589.6763">stored in</text></g><!--link DBFile to DataRoot--><g id="link_DBFile_DataRoot"><path d="M2677,753.3294 C2677,792.2694 2677,870.1294 2677,872.5494 " fill="none" id="DBFile-to-DataRoot" style="stroke:#000000;stroke-width:1.0;"/><polygon fill="#000000" points="2677,872.5494,2681,863.5494,2677,867.5494,2673,863.5494,2677,872.5494" style="stroke:#000000;stroke-width:1.0;"/><text fill="#000000" font-family="Verdana" font-size="13" lengthAdjust="spacing" textLength="62" x="2678" y="838.6763">located in</text></g><!--link DB to GMN45--><g id="link_DB_GMN45"><path d="M967.0948,487.9081 C967.219,488.1064 967.3445,488.3065 967.4713,488.5083 C967.7248,488.9119 967.9833,489.3226 968.2466,489.74 C969.3001,491.4095 970.4317,493.1871 971.6352,495.0568 C974.042,498.7964 976.7363,502.905 979.6675,507.2569 C991.3925,524.6644 1006.91,545.9644 1023,563.1094 C1074.79,618.2794 1144.66,672.1194 1187.18,703.0194 " fill="none" id="DB-GMN45" style="stroke:#000000;stroke-width:1.0;stroke-dasharray:7.0,7.0;"/></g><!--link SessionData to GMN48--><g id="link_SessionData_GMN48"><path d="M2589.1332,515.9918 C2589.0286,516.5691 2588.9212,517.1489 2588.8109,517.7308 C2588.5903,518.8947 2588.3581,520.0673 2588.1137,521.2467 C2587.1361,525.9642 2585.9634,530.7894 2584.5569,535.5925 C2581.7437,545.1988 2577.995,554.7169 2573,563.1094 C2540.03,618.5194 2482.28,665.1894 2439.07,694.8894 " fill="none" id="SessionData-GMN48" style="stroke:#000000;stroke-width:1.0;stroke-dasharray:7.0,7.0;"/></g><!--SRC=[ZLRRKkD647tNLtJy12mIji4ak59RnNKXnMqnbJniKgxng94798rsPcpYREs_f-SYMJ9iAZmOQURqcUwUqztwoSonGAXo9ieeCiBa26VCC3XMV2uCShDG234ylihuKQ22QvbbeinWOXGpcAsYg6ByXMK8lUEgoWLdHiWIJgN27doBWFw-t2jf99Svd9TaYty1qr2lUSJv4alZk56vRV_eDoUejUMyOIMhzyDQzBrr_gN8vl65mgyBBFdAXx4rwFSl__cmNVlo9FEKekZLd1VkNVTQdCxEevs5e9JqgZcvcmgPuZINMVAiPPaxe_jcOyE2im8LcnPeM4gCBPDJjqCHRbY8qg3A9N-PQaEvrIsJgthhhTLIf2WJjXGE-Bjzsq3eabMQtDHxFipwTGFMyTGXRyAA0rAcxRzI6WH5cJOWdzwBVcVdjydTxJLbLXNCX0i0pGeIHvbjZtTs6kYtdX45Kh15rHl3u71_zFClHuFXVd8mEjobo6Hkw69fQpyP3cYXag-efcGWYDck7oJ3x_-3xN2JRN3qFjjWjAPBaYHg1VNWTCrof01WylcQQWDUbVsjK3tPM4k-JaAAcM8fQdWLPWuVAGSWIesAxa0ZbsMQD52VBQ61LHMMQKnNljgbD4F5bBQLPWKj50OJWhWxw2ZVbKzymZIcGVQV5wXMR9PZetnxaJD2aFQzzsTXmLtrsKbByb_qOlPCfQzzgOMNrhOl5DsknDQsKSXCGHvDqVhbOSx55gWAzQyxtQ1z27j2ixBLveznh-jjpd8nK-vIFCLfQ-77WjrmOsUddRgwjstzEY3DTgGQDow2DbW1dxCoGztQloOA1KvKmDBdXNOfQ2EEgPao8or82zSbkIn8DsaRT4ToSY36JIUjSKW1kEO0r7vBpw9_ADD61DJsY92MLqPmlTlW5UO13xRvPAHdqfwZziU3NbILLEO_j7TXcyTaHLafQ2X8PMjiezbQwVdUOpNt8ALfzzS0gaMr5nwcm_vmD1Zq3wQ3W_t-Q3XbCqxLlDTkrRvxlw4YpOHUHoE9BbM_GSp8-qKLG2V-PLsyJQKOgJbBqbae4Hjga1Pbe15477yCymh6G6TxsMzjH_MGUGEeGwo1KTYrGAh4SUWiHi9cBVrPRhc7s3gOxe9NQjj-tPA9n_SKI_JU02EokPsPJ_NCt0NNhJjypRJgqBqxtOXllmyNzvCEGNjsTJZUdtT44fpevAyzdCV0RLeGGXx3jNRmRX0IagYL0JSaIUvSgfGgl8Eifvm5i-MQj8wjySETtVB5gy-TGLyxASKJUOtuUwobRg-Sleey87BjQ2QDaONjHsSdaI_SFuuVRgzkFzcohHiptDuzKirnjQgizTQodnmbWs7CychEjeFT_TmY3-4XJ0bBS2ConRn-gDUVYcfERhf9T7m-YOUZm_ZJwOspdo5r1WHEevc-t7AQMrKkLrPlG1tZ_lBAnKObdKHDyM-6qCfEyCaNLFE9MFVHc28J-GhOWYnTGdmPMfAwqWBmHfPcJj0re7lLsiQ6VvD-REzAbLXYi3pn4MbEtxKC2fS9srR6DTU7TQkZBexyPHtPlm00]--></g></svg>